<mxfile host="65bd71144e">
    <diagram id="pLtxWxZ9BPBXcQBQUXZG" name="Security Workflow">
        <mxGraphModel dx="3601" dy="1322" grid="1" gridSize="10" guides="1" tooltips="1" connect="1" arrows="1" fold="1" page="1" pageScale="1" pageWidth="1169" pageHeight="827" math="0" shadow="0">
            <root>
                <mxCell id="0"/>
                <mxCell id="1" parent="0"/>
                <UserObject label="" mermaidData="{&#10;  &quot;data&quot;: &quot;flowchart TD\n    subgraph Client[\&quot;Client Environment (Browser Extension)\&quot;]\n        UI[/\&quot;User Interface\&quot;/]\n        KG[\&quot;Key Generation\\n(RSA 4096-bit &amp; AES-256)\&quot;]\n        LE[\&quot;Local Encryption Module\&quot;]\n        LD[\&quot;Local Decryption Module\&quot;]\n        BIO[\&quot;Biometric Auth Module\&quot;]\n        SKS[\&quot;Secure Key Storage\\n(Protected Memory)\&quot;]\n\n        UI --&gt; |\&quot;1. Init Request\&quot;| KG\n        KG --&gt; |\&quot;2. Store Keys\&quot;| SKS\n        UI --&gt; |\&quot;3. Auth Request\&quot;| BIO\n        BIO --&gt; |\&quot;4. Verify\&quot;| SKS\n    end\n\n    subgraph WebApp[\&quot;Web Application (Next.js)\&quot;]\n        API[\&quot;API Layer\\n(Rate Limited)\&quot;]\n        AUTH[\&quot;Auth Service\\n(Zero Knowledge)\&quot;]\n        STORE[\&quot;Encrypted Storage\&quot;]\n        AUDIT[\&quot;Audit Logger\&quot;]\n\n        API --&gt; |\&quot;Verify\&quot;| AUTH\n        API --&gt; |\&quot;Log Access\&quot;| AUDIT\n        API &lt;--&gt; |\&quot;Read/Write\&quot;| STORE\n    end\n\n    subgraph Org[\&quot;Organization Management\&quot;]\n        RBAC[\&quot;Role-Based Access Control\&quot;]\n        TEAM[\&quot;Team Management\&quot;]\n        VAULT[\&quot;Password Vaults\&quot;]\n\n        RBAC --&gt; |\&quot;Control\&quot;| TEAM\n        TEAM --&gt; |\&quot;Access\&quot;| VAULT\n    end\n\n    %% Data Flow Lines\n    UI &lt;--&gt; |\&quot;5. HTTPS/TLS 1.3\\nPerfect Forward Secrecy\&quot;| API\n\n    %% Security Measures\n    classDef securityCheck fill:#f96,stroke:#333,stroke-width:2px\n    class KG,AUTH,RBAC securityCheck\n\n    %% Critical Data Points\n    classDef criticalData fill:#f66,stroke:#333,stroke-width:4px\n    class SKS,STORE criticalData\n\n    %% Security Notes\n    note1[\&quot;🔒 All data encrypted\\nbefore transmission\&quot;]\n    note2[\&quot;⚠️ Potential Memory\\nDump Vulnerability\&quot;]\n    note3[\&quot;🔑 Key rotation every\\n30 days\&quot;]\n    note4[\&quot;📝 Audit logs encrypted\\nbut searchable\&quot;]\n\n    note1 --&gt; LE\n    note2 --&gt; SKS\n    note3 --&gt; KG\n    note4 --&gt; AUDIT\n\n    %% Data Flow Details\n    subgraph DataFlow[\&quot;Data Flow Security\&quot;]\n        direction TB\n        E1[\&quot;1. Data Encryption (AES-GCM)\&quot;]\n        E2[\&quot;2. RSA Signature\&quot;]\n        E3[\&quot;3. TLS Encryption\&quot;]\n        E4[\&quot;4. Zero-Knowledge Proof\&quot;]\n\n        E1 --&gt; E2 --&gt; E3 --&gt; E4\n    end\n\n    subgraph KeyStorage[\&quot;Key Management\&quot;]\n        direction TB\n        K1[\&quot;1. Master Key (RSA-4096)\&quot;]\n        K2[\&quot;2. Derived Keys (PBKDF2)\&quot;]\n        K3[\&quot;3. Session Keys\&quot;]\n        K4[\&quot;4. Biometric Keys\&quot;]\n\n        K1 --&gt; K2 --&gt; K3 --&gt; K4\n    end\n\n    %% Vulnerability Points\n    style SKS fill:#f99,stroke:#f66,stroke-width:4px\n    style API fill:#ff9,stroke:#cc9,stroke-width:2px\n    style BIO fill:#ff9,stroke:#cc9,stroke-width:2px\n\n    %% Security Checkpoints\n    CP1{{\&quot;Integrity Check\&quot;}}\n    CP2{{\&quot;Rate Limiter\&quot;}}\n    CP3{{\&quot;Auth Validator\&quot;}}\n\n    UI --&gt; CP1\n    API --&gt; CP2\n    AUTH --&gt; CP3\n\n    classDef checkpoint fill:#9f9,stroke:#333,stroke-width:2px\n    class CP1,CP2,CP3 checkpoint&quot;,&#10;  &quot;config&quot;: {&#10;    &quot;startOnLoad&quot;: false,&#10;    &quot;themeCSS&quot;: &quot;&quot;,&#10;    &quot;theme&quot;: &quot;neutral&quot;,&#10;    &quot;arrowMarkerAbsolute&quot;: false,&#10;    &quot;flowchart&quot;: {&#10;      &quot;diagramPadding&quot;: 8,&#10;      &quot;htmlLabels&quot;: false,&#10;      &quot;nodeSpacing&quot;: 50,&#10;      &quot;rankSpacing&quot;: 50,&#10;      &quot;curve&quot;: &quot;linear&quot;,&#10;      &quot;padding&quot;: 15,&#10;      &quot;useMaxWidth&quot;: true&#10;    },&#10;    &quot;sequence&quot;: {&#10;      &quot;activationWidth&quot;: 10,&#10;      &quot;diagramMarginX&quot;: 50,&#10;      &quot;diagramMarginY&quot;: 10,&#10;      &quot;actorMargin&quot;: 50,&#10;      &quot;width&quot;: 150,&#10;      &quot;height&quot;: 65,&#10;      &quot;boxMargin&quot;: 10,&#10;      &quot;boxTextMargin&quot;: 5,&#10;      &quot;noteMargin&quot;: 10,&#10;      &quot;messageMargin&quot;: 35,&#10;      &quot;messageAlign&quot;: &quot;center&quot;,&#10;      &quot;mirrorActors&quot;: true,&#10;      &quot;bottomMarginAdj&quot;: 1,&#10;      &quot;useMaxWidth&quot;: true,&#10;      &quot;rightAngles&quot;: false,&#10;      &quot;showSequenceNumbers&quot;: false,&#10;      &quot;actorFontSize&quot;: 14,&#10;      &quot;actorFontFamily&quot;: &quot;\&quot;Open-Sans\&quot;, \&quot;sans-serif\&quot;&quot;,&#10;      &quot;actorFontWeight&quot;: 400,&#10;      &quot;noteFontSize&quot;: 14,&#10;      &quot;noteFontFamily&quot;: &quot;\&quot;trebuchet ms\&quot;, verdana, arial&quot;,&#10;      &quot;noteFontWeight&quot;: 400,&#10;      &quot;noteAlign&quot;: &quot;center&quot;,&#10;      &quot;messageFontSize&quot;: 16,&#10;      &quot;messageFontFamily&quot;: &quot;\&quot;trebuchet ms\&quot;, verdana, arial&quot;,&#10;      &quot;messageFontWeight&quot;: 400,&#10;      &quot;wrap&quot;: false,&#10;      &quot;wrapPadding&quot;: 10,&#10;      &quot;labelBoxWidth&quot;: 50,&#10;      &quot;labelBoxHeight&quot;: 20&#10;    },&#10;    &quot;gantt&quot;: {&#10;      &quot;titleTopMargin&quot;: 25,&#10;      &quot;barHeight&quot;: 20,&#10;      &quot;barGap&quot;: 4,&#10;      &quot;topPadding&quot;: 50,&#10;      &quot;leftPadding&quot;: 75,&#10;      &quot;gridLineStartPadding&quot;: 35,&#10;      &quot;fontSize&quot;: 11,&#10;      &quot;fontFamily&quot;: &quot;\&quot;Open-Sans\&quot;, \&quot;sans-serif\&quot;&quot;,&#10;      &quot;numberSectionStyles&quot;: 4,&#10;      &quot;axisFormat&quot;: &quot;%Y-%m-%d&quot;,&#10;      &quot;useMaxWidth&quot;: true&#10;    },&#10;    &quot;journey&quot;: {&#10;      &quot;diagramMarginX&quot;: 50,&#10;      &quot;diagramMarginY&quot;: 10,&#10;      &quot;actorMargin&quot;: 50,&#10;      &quot;width&quot;: 150,&#10;      &quot;height&quot;: 65,&#10;      &quot;boxMargin&quot;: 10,&#10;      &quot;boxTextMargin&quot;: 5,&#10;      &quot;noteMargin&quot;: 10,&#10;      &quot;messageMargin&quot;: 35,&#10;      &quot;messageAlign&quot;: &quot;center&quot;,&#10;      &quot;bottomMarginAdj&quot;: 1,&#10;      &quot;useMaxWidth&quot;: true,&#10;      &quot;rightAngles&quot;: false&#10;    },&#10;    &quot;class&quot;: {&#10;      &quot;arrowMarkerAbsolute&quot;: false,&#10;      &quot;useMaxWidth&quot;: true&#10;    },&#10;    &quot;git&quot;: {&#10;      &quot;arrowMarkerAbsolute&quot;: false,&#10;      &quot;useMaxWidth&quot;: true&#10;    },&#10;    &quot;state&quot;: {&#10;      &quot;dividerMargin&quot;: 10,&#10;      &quot;sizeUnit&quot;: 5,&#10;      &quot;padding&quot;: 8,&#10;      &quot;textHeight&quot;: 10,&#10;      &quot;titleShift&quot;: -15,&#10;      &quot;noteMargin&quot;: 10,&#10;      &quot;forkWidth&quot;: 70,&#10;      &quot;forkHeight&quot;: 7,&#10;      &quot;miniPadding&quot;: 2,&#10;      &quot;fontSizeFactor&quot;: 5.02,&#10;      &quot;fontSize&quot;: 24,&#10;      &quot;labelHeight&quot;: 16,&#10;      &quot;edgeLengthFactor&quot;: &quot;20&quot;,&#10;      &quot;compositTitleSize&quot;: 35,&#10;      &quot;radius&quot;: 5&#10;    },&#10;    &quot;er&quot;: {&#10;      &quot;diagramPadding&quot;: 20,&#10;      &quot;layoutDirection&quot;: &quot;TB&quot;,&#10;      &quot;minEntityWidth&quot;: 100,&#10;      &quot;minEntityHeight&quot;: 75,&#10;      &quot;entityPadding&quot;: 15,&#10;      &quot;stroke&quot;: &quot;grey&quot;,&#10;      &quot;fill&quot;: &quot;honeydew&quot;,&#10;      &quot;fontSize&quot;: 12,&#10;      &quot;useMaxWidth&quot;: true&#10;    },&#10;    &quot;pie&quot;: {&#10;      &quot;useMaxWidth&quot;: true&#10;    }&#10;  }&#10;}" id="38">
                    <mxCell style="shape=image;noLabel=1;verticalAlign=top;imageAspect=1;image=data:image/svg+xml,PHN2ZyB2aWV3Qm94PSIwIDAgMjIwNC43MTg3NSA3NjUiIHN0eWxlPSJtYXgtd2lkdGg6IDIyMDQuNzE4NzVweDsiIGhlaWdodD0iNzY1IiBhcmlhLWxhYmVsbGVkYnk9ImNoYXJ0LXRpdGxlLWdlTWVybWFpZE91dHB1dC0xNzMwNTU2ODY3NDExIGNoYXJ0LWRlc2MtZ2VNZXJtYWlkT3V0cHV0LTE3MzA1NTY4Njc0MTEiIHJvbGU9ImltZyIgeG1sbnM6eGxpbms9Imh0dHA6Ly93d3cudzMub3JnLzE5OTkveGxpbmsiIHhtbG5zPSJodHRwOi8vd3d3LnczLm9yZy8yMDAwL3N2ZyIgd2lkdGg9IjEwMCUiIGlkPSJnZU1lcm1haWRPdXRwdXQtMTczMDU1Njg2NzQxMSI+PHRpdGxlIGlkPSJjaGFydC10aXRsZS1nZU1lcm1haWRPdXRwdXQtMTczMDU1Njg2NzQxMSI+PC90aXRsZT48ZGVzYyBpZD0iY2hhcnQtZGVzYy1nZU1lcm1haWRPdXRwdXQtMTczMDU1Njg2NzQxMSI+PC9kZXNjPjxzdHlsZT4jZ2VNZXJtYWlkT3V0cHV0LTE3MzA1NTY4Njc0MTEge2ZvbnQtZmFtaWx5OiJ0cmVidWNoZXQgbXMiLHZlcmRhbmEsYXJpYWwsc2Fucy1zZXJpZjtmb250LXNpemU6MTZweDtmaWxsOiNjY2M7fSNnZU1lcm1haWRPdXRwdXQtMTczMDU1Njg2NzQxMSAuZXJyb3ItaWNvbntmaWxsOiNhNDQxNDE7fSNnZU1lcm1haWRPdXRwdXQtMTczMDU1Njg2NzQxMSAuZXJyb3ItdGV4dHtmaWxsOiNkZGQ7c3Ryb2tlOiNkZGQ7fSNnZU1lcm1haWRPdXRwdXQtMTczMDU1Njg2NzQxMSAuZWRnZS10aGlja25lc3Mtbm9ybWFse3N0cm9rZS13aWR0aDoycHg7fSNnZU1lcm1haWRPdXRwdXQtMTczMDU1Njg2NzQxMSAuZWRnZS10aGlja25lc3MtdGhpY2t7c3Ryb2tlLXdpZHRoOjMuNXB4O30jZ2VNZXJtYWlkT3V0cHV0LTE3MzA1NTY4Njc0MTEgLmVkZ2UtcGF0dGVybi1zb2xpZHtzdHJva2UtZGFzaGFycmF5OjA7fSNnZU1lcm1haWRPdXRwdXQtMTczMDU1Njg2NzQxMSAuZWRnZS1wYXR0ZXJuLWRhc2hlZHtzdHJva2UtZGFzaGFycmF5OjM7fSNnZU1lcm1haWRPdXRwdXQtMTczMDU1Njg2NzQxMSAuZWRnZS1wYXR0ZXJuLWRvdHRlZHtzdHJva2UtZGFzaGFycmF5OjI7fSNnZU1lcm1haWRPdXRwdXQtMTczMDU1Njg2NzQxMSAubWFya2Vye2ZpbGw6bGlnaHRncmV5O3N0cm9rZTpsaWdodGdyZXk7fSNnZU1lcm1haWRPdXRwdXQtMTczMDU1Njg2NzQxMSAubWFya2VyLmNyb3Nze3N0cm9rZTpsaWdodGdyZXk7fSNnZU1lcm1haWRPdXRwdXQtMTczMDU1Njg2NzQxMSBzdmd7Zm9udC1mYW1pbHk6InRyZWJ1Y2hldCBtcyIsdmVyZGFuYSxhcmlhbCxzYW5zLXNlcmlmO2ZvbnQtc2l6ZToxNnB4O30jZ2VNZXJtYWlkT3V0cHV0LTE3MzA1NTY4Njc0MTEgLmxhYmVse2ZvbnQtZmFtaWx5OiJ0cmVidWNoZXQgbXMiLHZlcmRhbmEsYXJpYWwsc2Fucy1zZXJpZjtjb2xvcjojY2NjO30jZ2VNZXJtYWlkT3V0cHV0LTE3MzA1NTY4Njc0MTEgLmNsdXN0ZXItbGFiZWwgdGV4dHtmaWxsOiNGOUZGRkU7fSNnZU1lcm1haWRPdXRwdXQtMTczMDU1Njg2NzQxMSAuY2x1c3Rlci1sYWJlbCBzcGFue2NvbG9yOiNGOUZGRkU7fSNnZU1lcm1haWRPdXRwdXQtMTczMDU1Njg2NzQxMSAubGFiZWwgdGV4dCwjZ2VNZXJtYWlkT3V0cHV0LTE3MzA1NTY4Njc0MTEgc3BhbntmaWxsOiNjY2M7Y29sb3I6I2NjYzt9I2dlTWVybWFpZE91dHB1dC0xNzMwNTU2ODY3NDExIC5ub2RlIHJlY3QsI2dlTWVybWFpZE91dHB1dC0xNzMwNTU2ODY3NDExIC5ub2RlIGNpcmNsZSwjZ2VNZXJtYWlkT3V0cHV0LTE3MzA1NTY4Njc0MTEgLm5vZGUgZWxsaXBzZSwjZ2VNZXJtYWlkT3V0cHV0LTE3MzA1NTY4Njc0MTEgLm5vZGUgcG9seWdvbiwjZ2VNZXJtYWlkT3V0cHV0LTE3MzA1NTY4Njc0MTEgLm5vZGUgcGF0aHtmaWxsOiMxZjIwMjA7c3Ryb2tlOiM4MUIxREI7c3Ryb2tlLXdpZHRoOjFweDt9I2dlTWVybWFpZE91dHB1dC0xNzMwNTU2ODY3NDExIC5ub2RlIC5sYWJlbHt0ZXh0LWFsaWduOmNlbnRlcjt9I2dlTWVybWFpZE91dHB1dC0xNzMwNTU2ODY3NDExIC5ub2RlLmNsaWNrYWJsZXtjdXJzb3I6cG9pbnRlcjt9I2dlTWVybWFpZE91dHB1dC0xNzMwNTU2ODY3NDExIC5hcnJvd2hlYWRQYXRoe2ZpbGw6bGlnaHRncmV5O30jZ2VNZXJtYWlkT3V0cHV0LTE3MzA1NTY4Njc0MTEgLmVkZ2VQYXRoIC5wYXRoe3N0cm9rZTpsaWdodGdyZXk7c3Ryb2tlLXdpZHRoOjIuMHB4O30jZ2VNZXJtYWlkT3V0cHV0LTE3MzA1NTY4Njc0MTEgLmZsb3djaGFydC1saW5re3N0cm9rZTpsaWdodGdyZXk7ZmlsbDpub25lO30jZ2VNZXJtYWlkT3V0cHV0LTE3MzA1NTY4Njc0MTEgLmVkZ2VMYWJlbHtiYWNrZ3JvdW5kLWNvbG9yOmhzbCgwLCAwJSwgMzQuNDExNzY0NzA1OSUpO3RleHQtYWxpZ246Y2VudGVyO30jZ2VNZXJtYWlkT3V0cHV0LTE3MzA1NTY4Njc0MTEgLmVkZ2VMYWJlbCByZWN0e29wYWNpdHk6MC41O2JhY2tncm91bmQtY29sb3I6aHNsKDAsIDAlLCAzNC40MTE3NjQ3MDU5JSk7ZmlsbDpoc2woMCwgMCUsIDM0LjQxMTc2NDcwNTklKTt9I2dlTWVybWFpZE91dHB1dC0xNzMwNTU2ODY3NDExIC5jbHVzdGVyIHJlY3R7ZmlsbDpoc2woMTgwLCAxLjU4NzMwMTU4NzMlLCAyOC4zNTI5NDExNzY1JSk7c3Ryb2tlOnJnYmEoMjU1LCAyNTUsIDI1NSwgMC4yNSk7c3Ryb2tlLXdpZHRoOjFweDt9I2dlTWVybWFpZE91dHB1dC0xNzMwNTU2ODY3NDExIC5jbHVzdGVyIHRleHR7ZmlsbDojRjlGRkZFO30jZ2VNZXJtYWlkT3V0cHV0LTE3MzA1NTY4Njc0MTEgLmNsdXN0ZXIgc3Bhbntjb2xvcjojRjlGRkZFO30jZ2VNZXJtYWlkT3V0cHV0LTE3MzA1NTY4Njc0MTEgZGl2Lm1lcm1haWRUb29sdGlwe3Bvc2l0aW9uOmFic29sdXRlO3RleHQtYWxpZ246Y2VudGVyO21heC13aWR0aDoyMDBweDtwYWRkaW5nOjJweDtmb250LWZhbWlseToidHJlYnVjaGV0IG1zIix2ZXJkYW5hLGFyaWFsLHNhbnMtc2VyaWY7Zm9udC1zaXplOjEycHg7YmFja2dyb3VuZDpoc2woMjAsIDEuNTg3MzAxNTg3MyUsIDEyLjM1Mjk0MTE3NjUlKTtib3JkZXI6MXB4IHNvbGlkIHJnYmEoMjU1LCAyNTUsIDI1NSwgMC4yNSk7Ym9yZGVyLXJhZGl1czoycHg7cG9pbnRlci1ldmVudHM6bm9uZTt6LWluZGV4OjEwMDt9I2dlTWVybWFpZE91dHB1dC0xNzMwNTU2ODY3NDExIDpyb290ey0tbWVybWFpZC1mb250LWZhbWlseToidHJlYnVjaGV0IG1zIix2ZXJkYW5hLGFyaWFsLHNhbnMtc2VyaWY7fSNnZU1lcm1haWRPdXRwdXQtMTczMDU1Njg2NzQxMSAuc2VjdXJpdHlDaGVjayBwYXRoe2ZpbGw6I2Y5NiFpbXBvcnRhbnQ7c3Ryb2tlOiMzMzMhaW1wb3J0YW50O3N0cm9rZS13aWR0aDoycHghaW1wb3J0YW50O30jZ2VNZXJtYWlkT3V0cHV0LTE3MzA1NTY4Njc0MTEgLnNlY3VyaXR5Q2hlY2sgcmVjdHtmaWxsOiNmOTYhaW1wb3J0YW50O3N0cm9rZTojMzMzIWltcG9ydGFudDtzdHJva2Utd2lkdGg6MnB4IWltcG9ydGFudDt9I2dlTWVybWFpZE91dHB1dC0xNzMwNTU2ODY3NDExIC5zZWN1cml0eUNoZWNrIHBvbHlnb257ZmlsbDojZjk2IWltcG9ydGFudDtzdHJva2U6IzMzMyFpbXBvcnRhbnQ7c3Ryb2tlLXdpZHRoOjJweCFpbXBvcnRhbnQ7fSNnZU1lcm1haWRPdXRwdXQtMTczMDU1Njg2NzQxMSAuc2VjdXJpdHlDaGVjayBlbGxpcHNle2ZpbGw6I2Y5NiFpbXBvcnRhbnQ7c3Ryb2tlOiMzMzMhaW1wb3J0YW50O3N0cm9rZS13aWR0aDoycHghaW1wb3J0YW50O30jZ2VNZXJtYWlkT3V0cHV0LTE3MzA1NTY4Njc0MTEgLnNlY3VyaXR5Q2hlY2sgY2lyY2xle2ZpbGw6I2Y5NiFpbXBvcnRhbnQ7c3Ryb2tlOiMzMzMhaW1wb3J0YW50O3N0cm9rZS13aWR0aDoycHghaW1wb3J0YW50O30jZ2VNZXJtYWlkT3V0cHV0LTE3MzA1NTY4Njc0MTEgLmNyaXRpY2FsRGF0YSBwYXRoe2ZpbGw6I2Y2NiFpbXBvcnRhbnQ7c3Ryb2tlOiMzMzMhaW1wb3J0YW50O3N0cm9rZS13aWR0aDo0cHghaW1wb3J0YW50O30jZ2VNZXJtYWlkT3V0cHV0LTE3MzA1NTY4Njc0MTEgLmNyaXRpY2FsRGF0YSByZWN0e2ZpbGw6I2Y2NiFpbXBvcnRhbnQ7c3Ryb2tlOiMzMzMhaW1wb3J0YW50O3N0cm9rZS13aWR0aDo0cHghaW1wb3J0YW50O30jZ2VNZXJtYWlkT3V0cHV0LTE3MzA1NTY4Njc0MTEgLmNyaXRpY2FsRGF0YSBwb2x5Z29ue2ZpbGw6I2Y2NiFpbXBvcnRhbnQ7c3Ryb2tlOiMzMzMhaW1wb3J0YW50O3N0cm9rZS13aWR0aDo0cHghaW1wb3J0YW50O30jZ2VNZXJtYWlkT3V0cHV0LTE3MzA1NTY4Njc0MTEgLmNyaXRpY2FsRGF0YSBlbGxpcHNle2ZpbGw6I2Y2NiFpbXBvcnRhbnQ7c3Ryb2tlOiMzMzMhaW1wb3J0YW50O3N0cm9rZS13aWR0aDo0cHghaW1wb3J0YW50O30jZ2VNZXJtYWlkT3V0cHV0LTE3MzA1NTY4Njc0MTEgLmNyaXRpY2FsRGF0YSBjaXJjbGV7ZmlsbDojZjY2IWltcG9ydGFudDtzdHJva2U6IzMzMyFpbXBvcnRhbnQ7c3Ryb2tlLXdpZHRoOjRweCFpbXBvcnRhbnQ7fSNnZU1lcm1haWRPdXRwdXQtMTczMDU1Njg2NzQxMSAuY2hlY2twb2ludCBwYXRoe2ZpbGw6IzlmOSFpbXBvcnRhbnQ7c3Ryb2tlOiMzMzMhaW1wb3J0YW50O3N0cm9rZS13aWR0aDoycHghaW1wb3J0YW50O30jZ2VNZXJtYWlkT3V0cHV0LTE3MzA1NTY4Njc0MTEgLmNoZWNrcG9pbnQgcmVjdHtmaWxsOiM5ZjkhaW1wb3J0YW50O3N0cm9rZTojMzMzIWltcG9ydGFudDtzdHJva2Utd2lkdGg6MnB4IWltcG9ydGFudDt9I2dlTWVybWFpZE91dHB1dC0xNzMwNTU2ODY3NDExIC5jaGVja3BvaW50IHBvbHlnb257ZmlsbDojOWY5IWltcG9ydGFudDtzdHJva2U6IzMzMyFpbXBvcnRhbnQ7c3Ryb2tlLXdpZHRoOjJweCFpbXBvcnRhbnQ7fSNnZU1lcm1haWRPdXRwdXQtMTczMDU1Njg2NzQxMSAuY2hlY2twb2ludCBlbGxpcHNle2ZpbGw6IzlmOSFpbXBvcnRhbnQ7c3Ryb2tlOiMzMzMhaW1wb3J0YW50O3N0cm9rZS13aWR0aDoycHghaW1wb3J0YW50O30jZ2VNZXJtYWlkT3V0cHV0LTE3MzA1NTY4Njc0MTEgLmNoZWNrcG9pbnQgY2lyY2xle2ZpbGw6IzlmOSFpbXBvcnRhbnQ7c3Ryb2tlOiMzMzMhaW1wb3J0YW50O3N0cm9rZS13aWR0aDoycHghaW1wb3J0YW50O308L3N0eWxlPjxnIHRyYW5zZm9ybT0idHJhbnNsYXRlKDAsIDApIj48bWFya2VyIG9yaWVudD0iYXV0byIgbWFya2VySGVpZ2h0PSIxMiIgbWFya2VyV2lkdGg9IjEyIiBtYXJrZXJVbml0cz0idXNlclNwYWNlT25Vc2UiIHJlZlk9IjUiIHJlZlg9IjkiIHZpZXdCb3g9IjAgMCAxMCAxMCIgY2xhc3M9Im1hcmtlciBmbG93Y2hhcnQiIGlkPSJmbG93Y2hhcnQtcG9pbnRFbmQiPjxwYXRoIHN0eWxlPSJzdHJva2Utd2lkdGg6IDE7IHN0cm9rZS1kYXNoYXJyYXk6IDEsIDA7IiBjbGFzcz0iYXJyb3dNYXJrZXJQYXRoIiBkPSJNIDAgMCBMIDEwIDUgTCAwIDEwIHoiPjwvcGF0aD48L21hcmtlcj48bWFya2VyIG9yaWVudD0iYXV0byIgbWFya2VySGVpZ2h0PSIxMiIgbWFya2VyV2lkdGg9IjEyIiBtYXJrZXJVbml0cz0idXNlclNwYWNlT25Vc2UiIHJlZlk9IjUiIHJlZlg9IjAiIHZpZXdCb3g9IjAgMCAxMCAxMCIgY2xhc3M9Im1hcmtlciBmbG93Y2hhcnQiIGlkPSJmbG93Y2hhcnQtcG9pbnRTdGFydCI+PHBhdGggc3R5bGU9InN0cm9rZS13aWR0aDogMTsgc3Ryb2tlLWRhc2hhcnJheTogMSwgMDsiIGNsYXNzPSJhcnJvd01hcmtlclBhdGgiIGQ9Ik0gMCA1IEwgMTAgMTAgTCAxMCAwIHoiPjwvcGF0aD48L21hcmtlcj48bWFya2VyIG9yaWVudD0iYXV0byIgbWFya2VySGVpZ2h0PSIxMSIgbWFya2VyV2lkdGg9IjExIiBtYXJrZXJVbml0cz0idXNlclNwYWNlT25Vc2UiIHJlZlk9IjUiIHJlZlg9IjExIiB2aWV3Qm94PSIwIDAgMTAgMTAiIGNsYXNzPSJtYXJrZXIgZmxvd2NoYXJ0IiBpZD0iZmxvd2NoYXJ0LWNpcmNsZUVuZCI+PGNpcmNsZSBzdHlsZT0ic3Ryb2tlLXdpZHRoOiAxOyBzdHJva2UtZGFzaGFycmF5OiAxLCAwOyIgY2xhc3M9ImFycm93TWFya2VyUGF0aCIgcj0iNSIgY3k9IjUiIGN4PSI1Ij48L2NpcmNsZT48L21hcmtlcj48bWFya2VyIG9yaWVudD0iYXV0byIgbWFya2VySGVpZ2h0PSIxMSIgbWFya2VyV2lkdGg9IjExIiBtYXJrZXJVbml0cz0idXNlclNwYWNlT25Vc2UiIHJlZlk9IjUiIHJlZlg9Ii0xIiB2aWV3Qm94PSIwIDAgMTAgMTAiIGNsYXNzPSJtYXJrZXIgZmxvd2NoYXJ0IiBpZD0iZmxvd2NoYXJ0LWNpcmNsZVN0YXJ0Ij48Y2lyY2xlIHN0eWxlPSJzdHJva2Utd2lkdGg6IDE7IHN0cm9rZS1kYXNoYXJyYXk6IDEsIDA7IiBjbGFzcz0iYXJyb3dNYXJrZXJQYXRoIiByPSI1IiBjeT0iNSIgY3g9IjUiPjwvY2lyY2xlPjwvbWFya2VyPjxtYXJrZXIgb3JpZW50PSJhdXRvIiBtYXJrZXJIZWlnaHQ9IjExIiBtYXJrZXJXaWR0aD0iMTEiIG1hcmtlclVuaXRzPSJ1c2VyU3BhY2VPblVzZSIgcmVmWT0iNS4yIiByZWZYPSIxMiIgdmlld0JveD0iMCAwIDExIDExIiBjbGFzcz0ibWFya2VyIGNyb3NzIGZsb3djaGFydCIgaWQ9ImZsb3djaGFydC1jcm9zc0VuZCI+PHBhdGggc3R5bGU9InN0cm9rZS13aWR0aDogMjsgc3Ryb2tlLWRhc2hhcnJheTogMSwgMDsiIGNsYXNzPSJhcnJvd01hcmtlclBhdGgiIGQ9Ik0gMSwxIGwgOSw5IE0gMTAsMSBsIC05LDkiPjwvcGF0aD48L21hcmtlcj48bWFya2VyIG9yaWVudD0iYXV0byIgbWFya2VySGVpZ2h0PSIxMSIgbWFya2VyV2lkdGg9IjExIiBtYXJrZXJVbml0cz0idXNlclNwYWNlT25Vc2UiIHJlZlk9IjUuMiIgcmVmWD0iLTEiIHZpZXdCb3g9IjAgMCAxMSAxMSIgY2xhc3M9Im1hcmtlciBjcm9zcyBmbG93Y2hhcnQiIGlkPSJmbG93Y2hhcnQtY3Jvc3NTdGFydCI+PHBhdGggc3R5bGU9InN0cm9rZS13aWR0aDogMjsgc3Ryb2tlLWRhc2hhcnJheTogMSwgMDsiIGNsYXNzPSJhcnJvd01hcmtlclBhdGgiIGQ9Ik0gMSwxIGwgOSw5IE0gMTAsMSBsIC05LDkiPjwvcGF0aD48L21hcmtlcj48ZyBjbGFzcz0icm9vdCI+PGcgY2xhc3M9ImNsdXN0ZXJzIj48ZyBpZD0iV2ViQXBwIiBjbGFzcz0iY2x1c3RlciBkZWZhdWx0Ij48cmVjdCBoZWlnaHQ9IjIxOSIgd2lkdGg9IjU4My42MTUyMzQzNzUiIHk9IjQ1NCIgeD0iOCIgcnk9IjAiIHJ4PSIwIiBzdHlsZT0iIj48L3JlY3Q+PGcgdHJhbnNmb3JtPSJ0cmFuc2xhdGUoMjA3LjQwOTE3OTY4NzUsIDQ1OSkiIGNsYXNzPSJjbHVzdGVyLWxhYmVsIj48dGV4dCBzdHlsZT0iIj48dHNwYW4gY2xhc3M9InJvdyIgeD0iMCIgZHk9IjFlbSIgeG1sOnNwYWNlPSJwcmVzZXJ2ZSI+V2ViIEFwcGxpY2F0aW9uIChOZXh0LmpzKTwvdHNwYW4+PC90ZXh0PjwvZz48L2c+PGcgaWQ9IkNsaWVudCIgY2xhc3M9ImNsdXN0ZXIgZGVmYXVsdCI+PHJlY3QgaGVpZ2h0PSI2NjUiIHdpZHRoPSI3MjAuMTM0NzY1NjI1IiB5PSI4IiB4PSIxMjY2LjUyOTI5Njg3NSIgcnk9IjAiIHJ4PSIwIiBzdHlsZT0iIj48L3JlY3Q+PGcgdHJhbnNmb3JtPSJ0cmFuc2xhdGUoMTQ4My45NDQzMzU5Mzc1LCAxMykiIGNsYXNzPSJjbHVzdGVyLWxhYmVsIj48dGV4dCBzdHlsZT0iIj48dHNwYW4gY2xhc3M9InJvdyIgeD0iMCIgZHk9IjFlbSIgeG1sOnNwYWNlPSJwcmVzZXJ2ZSI+Q2xpZW50IEVudmlyb25tZW50IChCcm93c2VyIEV4dGVuc2lvbik8L3RzcGFuPjwvdGV4dD48L2c+PC9nPjwvZz48ZyBjbGFzcz0iZWRnZVBhdGhzIj48cGF0aCBtYXJrZXItZW5kPSJ1cmwoI2Zsb3djaGFydC1wb2ludEVuZCkiIHN0eWxlPSJmaWxsOm5vbmU7IiBjbGFzcz0iZWRnZS10aGlja25lc3Mtbm9ybWFsIGVkZ2UtcGF0dGVybi1zb2xpZCBmbG93Y2hhcnQtbGluayBMUy1VSSBMRS1LRyIgaWQ9IkwtVUktS0ctMCIgZD0iTTE2NDcuMzY0MTIwOTU0NTcyMiwyMTguNTAwMDAwMDAwMDAwMUwxNTkxLjA5NTcwMzEyNSw0MTEuNUwxNTkxLjA5NTcwMzEyNSw0NTRMMTYwOS4yNTI5Mjk2ODc1LDQ3OSI+PC9wYXRoPjxwYXRoIG1hcmtlci1lbmQ9InVybCgjZmxvd2NoYXJ0LXBvaW50RW5kKSIgc3R5bGU9ImZpbGw6bm9uZTsiIGNsYXNzPSJlZGdlLXRoaWNrbmVzcy1ub3JtYWwgZWRnZS1wYXR0ZXJuLXNvbGlkIGZsb3djaGFydC1saW5rIExTLUtHIExFLVNLUyIgaWQ9IkwtS0ctU0tTLTAiIGQ9Ik0xNjI3LjQxMDE1NjI1LDUyOUwxNjI3LjQxMDE1NjI1LDU2My41TDE3ODQuMDE1NjI1LDYwMy4wNzQyMDc0MDkxMjc5Ij48L3BhdGg+PHBhdGggbWFya2VyLWVuZD0idXJsKCNmbG93Y2hhcnQtcG9pbnRFbmQpIiBzdHlsZT0iZmlsbDpub25lOyIgY2xhc3M9ImVkZ2UtdGhpY2tuZXNzLW5vcm1hbCBlZGdlLXBhdHRlcm4tc29saWQgZmxvd2NoYXJ0LWxpbmsgTFMtVUkgTEUtQklPIiBpZD0iTC1VSS1CSU8tMCIgZD0iTTE2NjkuMzEyNDExODU0MjE2MiwyMTguNTAwMDAwMDAwMDAwMUwxODYyLjg2NzE4NzUsNDExLjVMMTg2Mi44NjcxODc1LDQ1NEwxODYyLjg2NzE4NzUsNDg3Ij48L3BhdGg+PHBhdGggbWFya2VyLWVuZD0idXJsKCNmbG93Y2hhcnQtcG9pbnRFbmQpIiBzdHlsZT0iZmlsbDpub25lOyIgY2xhc3M9ImVkZ2UtdGhpY2tuZXNzLW5vcm1hbCBlZGdlLXBhdHRlcm4tc29saWQgZmxvd2NoYXJ0LWxpbmsgTFMtQklPIExFLVNLUyIgaWQ9IkwtQklPLVNLUy0wIiBkPSJNMTg2Mi44NjcxODc1LDUyMUwxODYyLjg2NzE4NzUsNTYzLjVMMTg2Mi44NjcxODc1LDU5OCI+PC9wYXRoPjxwYXRoIG1hcmtlci1lbmQ9InVybCgjZmxvd2NoYXJ0LXBvaW50RW5kKSIgc3R5bGU9ImZpbGw6bm9uZTsiIGNsYXNzPSJlZGdlLXRoaWNrbmVzcy1ub3JtYWwgZWRnZS1wYXR0ZXJuLXNvbGlkIGZsb3djaGFydC1saW5rIExTLUFQSSBMRS1BVVRIIiBpZD0iTC1BUEktQVVUSC0wIiBkPSJNMjkwLjI1LDUxOS4xMTE5MDc3MTUyMDcyTDExNC4wNDY4NzUsNTYzLjVMMTE0LjA0Njg3NSw1OTgiPjwvcGF0aD48cGF0aCBtYXJrZXItZW5kPSJ1cmwoI2Zsb3djaGFydC1wb2ludEVuZCkiIHN0eWxlPSJmaWxsOm5vbmU7IiBjbGFzcz0iZWRnZS10aGlja25lc3Mtbm9ybWFsIGVkZ2UtcGF0dGVybi1zb2xpZCBmbG93Y2hhcnQtbGluayBMUy1BUEkgTEUtQVVESVQiIGlkPSJMLUFQSS1BVURJVC0wIiBkPSJNMzkwLjU2ODY3MTIxODQ4NzQsNTI5TDQ0Ni4yMjQ2MDkzNzUsNTYzLjVMNDczLjk4MjcwMDg5Mjg1NzE3LDYwNiI+PC9wYXRoPjxwYXRoIG1hcmtlci1lbmQ9InVybCgjZmxvd2NoYXJ0LXBvaW50RW5kKSIgbWFya2VyLXN0YXJ0PSJ1cmwoI2Zsb3djaGFydC1wb2ludFN0YXJ0KSIgc3R5bGU9ImZpbGw6bm9uZTsiIGNsYXNzPSJlZGdlLXRoaWNrbmVzcy1ub3JtYWwgZWRnZS1wYXR0ZXJuLXNvbGlkIGZsb3djaGFydC1saW5rIExTLUFQSSBMRS1TVE9SRSIgaWQ9IkwtQVBJLVNUT1JFLTAiIGQ9Ik0zMzIuNjAyNzExMzk3MDU4ODQsNTI5TDMwOC4yNjU2MjUsNTYzLjVMMzA4LjI2NTYyNSw2MDYiPjwvcGF0aD48cGF0aCBtYXJrZXItZW5kPSJ1cmwoI2Zsb3djaGFydC1wb2ludEVuZCkiIG1hcmtlci1zdGFydD0idXJsKCNmbG93Y2hhcnQtcG9pbnRTdGFydCkiIHN0eWxlPSJmaWxsOm5vbmU7IiBjbGFzcz0iZWRnZS10aGlja25lc3Mtbm9ybWFsIGVkZ2UtcGF0dGVybi1zb2xpZCBmbG93Y2hhcnQtbGluayBMUy1VSSBMRS1BUEkiIGlkPSJMLVVJLUFQSS0wIiBkPSJNMTYzMi43NTUzNzY4OTI4MTQ2LDIxOC41MDAwMDAwMDAwMDAxTDE0MTAuMjA1MDc4MTI1LDQxMS41TDE0MTAuMjA1MDc4MTI1LDQ1NEw0MTAuMjI2NTYyNSw1MDEuMTcwMjc1NDU0NTMwNCI+PC9wYXRoPjxwYXRoIG1hcmtlci1lbmQ9InVybCgjZmxvd2NoYXJ0LXBvaW50RW5kKSIgc3R5bGU9ImZpbGw6bm9uZTsiIGNsYXNzPSJlZGdlLXRoaWNrbmVzcy1ub3JtYWwgZWRnZS1wYXR0ZXJuLXNvbGlkIGZsb3djaGFydC1saW5rIExTLW5vdGUxIExFLUxFIiBpZD0iTC1ub3RlMS1MRS0wIiBkPSJNMTAzOS40MzU1NDY4NzUsNTE1LjY1MjcwMjUzNjMyMTJMMTM5Ni42MTkxNDA2MjUsNTYzLjVMMTM5Ni42MTkxNDA2MjUsNjA2Ij48L3BhdGg+PHBhdGggbWFya2VyLWVuZD0idXJsKCNmbG93Y2hhcnQtcG9pbnRFbmQpIiBzdHlsZT0iZmlsbDpub25lOyIgY2xhc3M9ImVkZ2UtdGhpY2tuZXNzLW5vcm1hbCBlZGdlLXBhdHRlcm4tc29saWQgZmxvd2NoYXJ0LWxpbmsgTFMtbm90ZTIgTEUtU0tTIiBpZD0iTC1ub3RlMi1TS1MtMCIgZD0iTTIwMzYuMzY5NTUwOTQ1Mzc4Myw1MjlMMTk0MC40ODQzNzUsNTYzLjVMMTg5NS40Nzk0NTExNTU0NjIxLDU5OCI+PC9wYXRoPjxwYXRoIG1hcmtlci1lbmQ9InVybCgjZmxvd2NoYXJ0LXBvaW50RW5kKSIgc3R5bGU9ImZpbGw6bm9uZTsiIGNsYXNzPSJlZGdlLXRoaWNrbmVzcy1ub3JtYWwgZWRnZS1wYXR0ZXJuLXNvbGlkIGZsb3djaGFydC1saW5rIExTLW5vdGUzIExFLUtHIiBpZD0iTC1ub3RlMy1LRy0wIiBkPSJNMjA2MS4zOTU5Nzg2OTY1NTU2LDIyNkwxNzA2Ljc1MzkwNjI1LDQxMS41TDE3MDYuNzUzOTA2MjUsNDU0TDE2NjcuMDgyMDMxMjUsNDc5Ij48L3BhdGg+PHBhdGggbWFya2VyLWVuZD0idXJsKCNmbG93Y2hhcnQtcG9pbnRFbmQpIiBzdHlsZT0iZmlsbDpub25lOyIgY2xhc3M9ImVkZ2UtdGhpY2tuZXNzLW5vcm1hbCBlZGdlLXBhdHRlcm4tc29saWQgZmxvd2NoYXJ0LWxpbmsgTFMtbm90ZTQgTEUtQVVESVQiIGlkPSJMLW5vdGU0LUFVRElULTAiIGQ9Ik02MzQuMDk3NjA3MDExNTU0Niw1MjlMNTE0LjEyMTA5Mzc1LDU2My41TDQ5My4zODE2OTY0Mjg1NzE0NCw2MDYiPjwvcGF0aD48cGF0aCBtYXJrZXItZW5kPSJ1cmwoI2Zsb3djaGFydC1wb2ludEVuZCkiIHN0eWxlPSJmaWxsOm5vbmU7IiBjbGFzcz0iZWRnZS10aGlja25lc3Mtbm9ybWFsIGVkZ2UtcGF0dGVybi1zb2xpZCBmbG93Y2hhcnQtbGluayBMUy1VSSBMRS1DUDEiIGlkPSJMLVVJLUNQMS0wIiBkPSJNMTY0MS40OTg2MDM1ODUyMTM1LDIxOC41MDAwMDAwMDAwMDAxTDE1MTguNDY2Nzk2ODc1LDQxMS41TDE1MTguNDY2Nzk2ODc1LDQ1NEwxMjI3LjM5MTU4MzE5NTQyNzUsNDk1LjIyNDU3MjY0MDg1NTEiPjwvcGF0aD48cGF0aCBtYXJrZXItZW5kPSJ1cmwoI2Zsb3djaGFydC1wb2ludEVuZCkiIHN0eWxlPSJmaWxsOm5vbmU7IiBjbGFzcz0iZWRnZS10aGlja25lc3Mtbm9ybWFsIGVkZ2UtcGF0dGVybi1zb2xpZCBmbG93Y2hhcnQtbGluayBMUy1BUEkgTEUtQ1AyIiBpZD0iTC1BUEktQ1AyLTAiIGQ9Ik00MTAuMjI2NTYyNSw1MjMuNDEwNzQ2OTA5MTIxOEw1MzQuMTIxMDkzNzUsNTYzLjVMODcyLjc1ODA4NzE5ODc2MjgsNjE0Ljk0MDg1Njg1MjQ3NDQiPjwvcGF0aD48cGF0aCBtYXJrZXItZW5kPSJ1cmwoI2Zsb3djaGFydC1wb2ludEVuZCkiIHN0eWxlPSJmaWxsOm5vbmU7IiBjbGFzcz0iZWRnZS10aGlja25lc3Mtbm9ybWFsIGVkZ2UtcGF0dGVybi1zb2xpZCBmbG93Y2hhcnQtbGluayBMUy1BVVRIIExFLUNQMyIgaWQ9IkwtQVVUSC1DUDMtMCIgZD0iTTExNC4wNDY4NzUsNjQ4TDExNC4wNDY4NzUsNjczTDExNC4wNDY4NzUsNjk4TDExNC41NDY4NzUsNzIzLjUiPjwvcGF0aD48L2c+PGcgY2xhc3M9ImVkZ2VMYWJlbHMiPjxnIHRyYW5zZm9ybT0idHJhbnNsYXRlKDE1OTEuMDk1NzAzMTI1LCA0MTEuNSkiIGNsYXNzPSJlZGdlTGFiZWwiPjxnIHRyYW5zZm9ybT0idHJhbnNsYXRlKC01Mi42Mjg5MDYyNSwgLTkuNSkiIGNsYXNzPSJsYWJlbCI+PHJlY3QgaGVpZ2h0PSIxOC41NzE2MzgxMDcyOTk4MDUiIHdpZHRoPSIxMDQuODc4OTgyNTQzOTQ1MzEiIHJ5PSIwIiByeD0iMCI+PC9yZWN0Pjx0ZXh0IHN0eWxlPSIiPjx0c3BhbiBjbGFzcz0icm93IiB4PSIwIiBkeT0iMWVtIiB4bWw6c3BhY2U9InByZXNlcnZlIj4xLiBJbml0IFJlcXVlc3Q8L3RzcGFuPjwvdGV4dD48L2c+PC9nPjxnIHRyYW5zZm9ybT0idHJhbnNsYXRlKDE2MjcuNDEwMTU2MjUsIDU2My41KSIgY2xhc3M9ImVkZ2VMYWJlbCI+PGcgdHJhbnNmb3JtPSJ0cmFuc2xhdGUoLTQ2LjkwMjM0Mzc1LCAtOS41KSIgY2xhc3M9ImxhYmVsIj48cmVjdCBoZWlnaHQ9IjE4LjU3MTYzODEwNzI5OTgwNSIgd2lkdGg9IjkzLjQyNzIyMzIwNTU2NjQiIHJ5PSIwIiByeD0iMCI+PC9yZWN0Pjx0ZXh0IHN0eWxlPSIiPjx0c3BhbiBjbGFzcz0icm93IiB4PSIwIiBkeT0iMWVtIiB4bWw6c3BhY2U9InByZXNlcnZlIj4yLiBTdG9yZSBLZXlzPC90c3Bhbj48L3RleHQ+PC9nPjwvZz48ZyB0cmFuc2Zvcm09InRyYW5zbGF0ZSgxODYyLjg2NzE4NzUsIDQxMS41KSIgY2xhc3M9ImVkZ2VMYWJlbCI+PGcgdHJhbnNmb3JtPSJ0cmFuc2xhdGUoLTU2Ljc2OTUzMTI1LCAtOS41KSIgY2xhc3M9ImxhYmVsIj48cmVjdCBoZWlnaHQ9IjE4LjU3MTYzODEwNzI5OTgwNSIgd2lkdGg9IjExMy4xNTkyNjM2MTA4Mzk4NCIgcnk9IjAiIHJ4PSIwIj48L3JlY3Q+PHRleHQgc3R5bGU9IiI+PHRzcGFuIGNsYXNzPSJyb3ciIHg9IjAiIGR5PSIxZW0iIHhtbDpzcGFjZT0icHJlc2VydmUiPjMuIEF1dGggUmVxdWVzdDwvdHNwYW4+PC90ZXh0PjwvZz48L2c+PGcgdHJhbnNmb3JtPSJ0cmFuc2xhdGUoMTg2Mi44NjcxODc1LCA1NjMuNSkiIGNsYXNzPSJlZGdlTGFiZWwiPjxnIHRyYW5zZm9ybT0idHJhbnNsYXRlKC0zMS40Mzc1LCAtOS41KSIgY2xhc3M9ImxhYmVsIj48cmVjdCBoZWlnaHQ9IjE4LjU3MTYzODEwNzI5OTgwNSIgd2lkdGg9IjYzLjQ4MTE0Mzk1MTQxNjAxNiIgcnk9IjAiIHJ4PSIwIj48L3JlY3Q+PHRleHQgc3R5bGU9IiI+PHRzcGFuIGNsYXNzPSJyb3ciIHg9IjAiIGR5PSIxZW0iIHhtbDpzcGFjZT0icHJlc2VydmUiPjQuIFZlcmlmeTwvdHNwYW4+PC90ZXh0PjwvZz48L2c+PGcgdHJhbnNmb3JtPSJ0cmFuc2xhdGUoMTE0LjA0Njg3NSwgNTYzLjUpIiBjbGFzcz0iZWRnZUxhYmVsIj48ZyB0cmFuc2Zvcm09InRyYW5zbGF0ZSgtMjEuODk0NTMxMjUsIC05LjUpIiBjbGFzcz0ibGFiZWwiPjxyZWN0IGhlaWdodD0iMTguNTcxNjM4MTA3Mjk5ODA1IiB3aWR0aD0iNDQuMzk3NDU3MTIyODAyNzM0IiByeT0iMCIgcng9IjAiPjwvcmVjdD48dGV4dCBzdHlsZT0iIj48dHNwYW4gY2xhc3M9InJvdyIgeD0iMCIgZHk9IjFlbSIgeG1sOnNwYWNlPSJwcmVzZXJ2ZSI+VmVyaWZ5PC90c3Bhbj48L3RleHQ+PC9nPjwvZz48ZyB0cmFuc2Zvcm09InRyYW5zbGF0ZSg0NDYuMjI0NjA5Mzc1LCA1NjMuNSkiIGNsYXNzPSJlZGdlTGFiZWwiPjxnIHRyYW5zZm9ybT0idHJhbnNsYXRlKC0zOC4wNzAzMTI1LCAtOS41KSIgY2xhc3M9ImxhYmVsIj48cmVjdCBoZWlnaHQ9IjE4LjU3MTYzODEwNzI5OTgwNSIgd2lkdGg9Ijc1Ljc2NTIxMzAxMjY5NTMxIiByeT0iMCIgcng9IjAiPjwvcmVjdD48dGV4dCBzdHlsZT0iIj48dHNwYW4gY2xhc3M9InJvdyIgeD0iMCIgZHk9IjFlbSIgeG1sOnNwYWNlPSJwcmVzZXJ2ZSI+TG9nIEFjY2VzczwvdHNwYW4+PC90ZXh0PjwvZz48L2c+PGcgdHJhbnNmb3JtPSJ0cmFuc2xhdGUoMzA4LjI2NTYyNSwgNTYzLjUpIiBjbGFzcz0iZWRnZUxhYmVsIj48ZyB0cmFuc2Zvcm09InRyYW5zbGF0ZSgtNDEuMDI3MzQzNzUsIC05LjUpIiBjbGFzcz0ibGFiZWwiPjxyZWN0IGhlaWdodD0iMTguNTcxNjM4MTA3Mjk5ODA1IiB3aWR0aD0iODIuMzMxOTMyMDY3ODcxMSIgcnk9IjAiIHJ4PSIwIj48L3JlY3Q+PHRleHQgc3R5bGU9IiI+PHRzcGFuIGNsYXNzPSJyb3ciIHg9IjAiIGR5PSIxZW0iIHhtbDpzcGFjZT0icHJlc2VydmUiPlJlYWQvV3JpdGU8L3RzcGFuPjwvdGV4dD48L2c+PC9nPjxnIHRyYW5zZm9ybT0idHJhbnNsYXRlKDE0MTAuMjA1MDc4MTI1LCA0MTEuNSkiIGNsYXNzPSJlZGdlTGFiZWwiPjxnIHRyYW5zZm9ybT0idHJhbnNsYXRlKC04OC4yNjE3MTg3NSwgLTE3LjUpIiBjbGFzcz0ibGFiZWwiPjxyZWN0IGhlaWdodD0iMzQuNTcxNjQwMDE0NjQ4NDQiIHdpZHRoPSIxNzYuNzg5NTY2MDQwMDM5MDYiIHJ5PSIwIiByeD0iMCI+PC9yZWN0Pjx0ZXh0IHN0eWxlPSIiPjx0c3BhbiBjbGFzcz0icm93IiB4PSIwIiBkeT0iMWVtIiB4bWw6c3BhY2U9InByZXNlcnZlIj41LiBIVFRQUy9UTFMgMS4zPC90c3Bhbj48dHNwYW4gY2xhc3M9InJvdyIgeD0iMCIgZHk9IjFlbSIgeG1sOnNwYWNlPSJwcmVzZXJ2ZSI+UGVyZmVjdCBGb3J3YXJkIFNlY3JlY3k8L3RzcGFuPjwvdGV4dD48L2c+PC9nPjxnIGNsYXNzPSJlZGdlTGFiZWwiPjxnIHRyYW5zZm9ybT0idHJhbnNsYXRlKDAsIDApIiBjbGFzcz0ibGFiZWwiPjxyZWN0IGhlaWdodD0iMCIgd2lkdGg9IjAiIHJ5PSIwIiByeD0iMCI+PC9yZWN0Pjx0ZXh0IHN0eWxlPSIiPjx0c3BhbiBjbGFzcz0icm93IiB4PSIwIiBkeT0iMWVtIiB4bWw6c3BhY2U9InByZXNlcnZlIj48L3RzcGFuPjwvdGV4dD48L2c+PC9nPjxnIGNsYXNzPSJlZGdlTGFiZWwiPjxnIHRyYW5zZm9ybT0idHJhbnNsYXRlKDAsIDApIiBjbGFzcz0ibGFiZWwiPjxyZWN0IGhlaWdodD0iMCIgd2lkdGg9IjAiIHJ5PSIwIiByeD0iMCI+PC9yZWN0Pjx0ZXh0IHN0eWxlPSIiPjx0c3BhbiBjbGFzcz0icm93IiB4PSIwIiBkeT0iMWVtIiB4bWw6c3BhY2U9InByZXNlcnZlIj48L3RzcGFuPjwvdGV4dD48L2c+PC9nPjxnIGNsYXNzPSJlZGdlTGFiZWwiPjxnIHRyYW5zZm9ybT0idHJhbnNsYXRlKDAsIDApIiBjbGFzcz0ibGFiZWwiPjxyZWN0IGhlaWdodD0iMCIgd2lkdGg9IjAiIHJ5PSIwIiByeD0iMCI+PC9yZWN0Pjx0ZXh0IHN0eWxlPSIiPjx0c3BhbiBjbGFzcz0icm93IiB4PSIwIiBkeT0iMWVtIiB4bWw6c3BhY2U9InByZXNlcnZlIj48L3RzcGFuPjwvdGV4dD48L2c+PC9nPjxnIGNsYXNzPSJlZGdlTGFiZWwiPjxnIHRyYW5zZm9ybT0idHJhbnNsYXRlKDAsIDApIiBjbGFzcz0ibGFiZWwiPjxyZWN0IGhlaWdodD0iMCIgd2lkdGg9IjAiIHJ5PSIwIiByeD0iMCI+PC9yZWN0Pjx0ZXh0IHN0eWxlPSIiPjx0c3BhbiBjbGFzcz0icm93IiB4PSIwIiBkeT0iMWVtIiB4bWw6c3BhY2U9InByZXNlcnZlIj48L3RzcGFuPjwvdGV4dD48L2c+PC9nPjxnIGNsYXNzPSJlZGdlTGFiZWwiPjxnIHRyYW5zZm9ybT0idHJhbnNsYXRlKDAsIDApIiBjbGFzcz0ibGFiZWwiPjxyZWN0IGhlaWdodD0iMCIgd2lkdGg9IjAiIHJ5PSIwIiByeD0iMCI+PC9yZWN0Pjx0ZXh0IHN0eWxlPSIiPjx0c3BhbiBjbGFzcz0icm93IiB4PSIwIiBkeT0iMWVtIiB4bWw6c3BhY2U9InByZXNlcnZlIj48L3RzcGFuPjwvdGV4dD48L2c+PC9nPjxnIGNsYXNzPSJlZGdlTGFiZWwiPjxnIHRyYW5zZm9ybT0idHJhbnNsYXRlKDAsIDApIiBjbGFzcz0ibGFiZWwiPjxyZWN0IGhlaWdodD0iMCIgd2lkdGg9IjAiIHJ5PSIwIiByeD0iMCI+PC9yZWN0Pjx0ZXh0IHN0eWxlPSIiPjx0c3BhbiBjbGFzcz0icm93IiB4PSIwIiBkeT0iMWVtIiB4bWw6c3BhY2U9InByZXNlcnZlIj48L3RzcGFuPjwvdGV4dD48L2c+PC9nPjxnIGNsYXNzPSJlZGdlTGFiZWwiPjxnIHRyYW5zZm9ybT0idHJhbnNsYXRlKDAsIDApIiBjbGFzcz0ibGFiZWwiPjxyZWN0IGhlaWdodD0iMCIgd2lkdGg9IjAiIHJ5PSIwIiByeD0iMCI+PC9yZWN0Pjx0ZXh0IHN0eWxlPSIiPjx0c3BhbiBjbGFzcz0icm93IiB4PSIwIiBkeT0iMWVtIiB4bWw6c3BhY2U9InByZXNlcnZlIj48L3RzcGFuPjwvdGV4dD48L2c+PC9nPjwvZz48ZyBjbGFzcz0ibm9kZXMiPjxnIHRyYW5zZm9ybT0idHJhbnNsYXRlKDI4Ny43NDAyMzQzNzUsIDI1KSIgY2xhc3M9InJvb3QiPjxnIGNsYXNzPSJjbHVzdGVycyI+PGcgaWQ9IktleVN0b3JhZ2UiIGNsYXNzPSJjbHVzdGVyIGRlZmF1bHQiPjxyZWN0IGhlaWdodD0iMzM2IiB3aWR0aD0iMjY1Ljk5MjE4NzUiIHk9IjgiIHg9IjgiIHJ5PSIwIiByeD0iMCIgc3R5bGU9IiI+PC9yZWN0PjxnIHRyYW5zZm9ybT0idHJhbnNsYXRlKDgwLjIxNDg0Mzc1LCAxMykiIGNsYXNzPSJjbHVzdGVyLWxhYmVsIj48dGV4dCBzdHlsZT0iIj48dHNwYW4gY2xhc3M9InJvdyIgeD0iMCIgZHk9IjFlbSIgeG1sOnNwYWNlPSJwcmVzZXJ2ZSI+S2V5IE1hbmFnZW1lbnQ8L3RzcGFuPjwvdGV4dD48L2c+PC9nPjwvZz48ZyBjbGFzcz0iZWRnZVBhdGhzIj48cGF0aCBtYXJrZXItZW5kPSJ1cmwoI2Zsb3djaGFydC1wb2ludEVuZCkiIHN0eWxlPSJmaWxsOm5vbmU7IiBjbGFzcz0iZWRnZS10aGlja25lc3Mtbm9ybWFsIGVkZ2UtcGF0dGVybi1zb2xpZCBmbG93Y2hhcnQtbGluayBMUy1LMSBMRS1LMiIgaWQ9IkwtSzEtSzItMCIgZD0iTTE0MC45OTYwOTM3NSw2N0wxNDAuOTk2MDkzNzUsOTJMMTQwLjk5NjA5Mzc1LDExNyI+PC9wYXRoPjxwYXRoIG1hcmtlci1lbmQ9InVybCgjZmxvd2NoYXJ0LXBvaW50RW5kKSIgc3R5bGU9ImZpbGw6bm9uZTsiIGNsYXNzPSJlZGdlLXRoaWNrbmVzcy1ub3JtYWwgZWRnZS1wYXR0ZXJuLXNvbGlkIGZsb3djaGFydC1saW5rIExTLUsyIExFLUszIiBpZD0iTC1LMi1LMy0wIiBkPSJNMTQwLjk5NjA5Mzc1LDE1MUwxNDAuOTk2MDkzNzUsMTc2TDE0MC45OTYwOTM3NSwyMDEiPjwvcGF0aD48cGF0aCBtYXJrZXItZW5kPSJ1cmwoI2Zsb3djaGFydC1wb2ludEVuZCkiIHN0eWxlPSJmaWxsOm5vbmU7IiBjbGFzcz0iZWRnZS10aGlja25lc3Mtbm9ybWFsIGVkZ2UtcGF0dGVybi1zb2xpZCBmbG93Y2hhcnQtbGluayBMUy1LMyBMRS1LNCIgaWQ9IkwtSzMtSzQtMCIgZD0iTTE0MC45OTYwOTM3NSwyMzVMMTQwLjk5NjA5Mzc1LDI2MEwxNDAuOTk2MDkzNzUsMjg1Ij48L3BhdGg+PC9nPjxnIGNsYXNzPSJlZGdlTGFiZWxzIj48ZyBjbGFzcz0iZWRnZUxhYmVsIj48ZyB0cmFuc2Zvcm09InRyYW5zbGF0ZSgwLCAwKSIgY2xhc3M9ImxhYmVsIj48cmVjdCBoZWlnaHQ9IjAiIHdpZHRoPSIwIiByeT0iMCIgcng9IjAiPjwvcmVjdD48dGV4dCBzdHlsZT0iIj48dHNwYW4gY2xhc3M9InJvdyIgeD0iMCIgZHk9IjFlbSIgeG1sOnNwYWNlPSJwcmVzZXJ2ZSI+PC90c3Bhbj48L3RleHQ+PC9nPjwvZz48ZyBjbGFzcz0iZWRnZUxhYmVsIj48ZyB0cmFuc2Zvcm09InRyYW5zbGF0ZSgwLCAwKSIgY2xhc3M9ImxhYmVsIj48cmVjdCBoZWlnaHQ9IjAiIHdpZHRoPSIwIiByeT0iMCIgcng9IjAiPjwvcmVjdD48dGV4dCBzdHlsZT0iIj48dHNwYW4gY2xhc3M9InJvdyIgeD0iMCIgZHk9IjFlbSIgeG1sOnNwYWNlPSJwcmVzZXJ2ZSI+PC90c3Bhbj48L3RleHQ+PC9nPjwvZz48ZyBjbGFzcz0iZWRnZUxhYmVsIj48ZyB0cmFuc2Zvcm09InRyYW5zbGF0ZSgwLCAwKSIgY2xhc3M9ImxhYmVsIj48cmVjdCBoZWlnaHQ9IjAiIHdpZHRoPSIwIiByeT0iMCIgcng9IjAiPjwvcmVjdD48dGV4dCBzdHlsZT0iIj48dHNwYW4gY2xhc3M9InJvdyIgeD0iMCIgZHk9IjFlbSIgeG1sOnNwYWNlPSJwcmVzZXJ2ZSI+PC90c3Bhbj48L3RleHQ+PC9nPjwvZz48L2c+PGcgY2xhc3M9Im5vZGVzIj48ZyB0cmFuc2Zvcm09InRyYW5zbGF0ZSgxNDAuOTk2MDkzNzUsIDUwKSIgaWQ9ImZsb3djaGFydC1LMS0xMjYiIGNsYXNzPSJub2RlIGRlZmF1bHQgZGVmYXVsdCI+PHJlY3QgaGVpZ2h0PSIzNCIgd2lkdGg9IjE5NC4zMzU5Mzc1IiB5PSItMTciIHg9Ii05Ny4xNjc5Njg3NSIgcnk9IjAiIHJ4PSIwIiBzdHlsZT0iIiBjbGFzcz0iYmFzaWMgbGFiZWwtY29udGFpbmVyIj48L3JlY3Q+PGcgdHJhbnNmb3JtPSJ0cmFuc2xhdGUoLTg5LjY2Nzk2ODc1LCAtOS41KSIgc3R5bGU9IiIgY2xhc3M9ImxhYmVsIj48dGV4dCBzdHlsZT0iIj48dHNwYW4gY2xhc3M9InJvdyIgeD0iMCIgZHk9IjFlbSIgeG1sOnNwYWNlPSJwcmVzZXJ2ZSI+MS4gTWFzdGVyIEtleSAoUlNBLTQwOTYpPC90c3Bhbj48L3RleHQ+PC9nPjwvZz48ZyB0cmFuc2Zvcm09InRyYW5zbGF0ZSgxNDAuOTk2MDkzNzUsIDEzNCkiIGlkPSJmbG93Y2hhcnQtSzItMTI3IiBjbGFzcz0ibm9kZSBkZWZhdWx0IGRlZmF1bHQiPjxyZWN0IGhlaWdodD0iMzQiIHdpZHRoPSIxOTUuOTkyMTg3NSIgeT0iLTE3IiB4PSItOTcuOTk2MDkzNzUiIHJ5PSIwIiByeD0iMCIgc3R5bGU9IiIgY2xhc3M9ImJhc2ljIGxhYmVsLWNvbnRhaW5lciI+PC9yZWN0PjxnIHRyYW5zZm9ybT0idHJhbnNsYXRlKC05MC40OTYwOTM3NSwgLTkuNSkiIHN0eWxlPSIiIGNsYXNzPSJsYWJlbCI+PHRleHQgc3R5bGU9IiI+PHRzcGFuIGNsYXNzPSJyb3ciIHg9IjAiIGR5PSIxZW0iIHhtbDpzcGFjZT0icHJlc2VydmUiPjIuIERlcml2ZWQgS2V5cyAoUEJLREYyKTwvdHNwYW4+PC90ZXh0PjwvZz48L2c+PGcgdHJhbnNmb3JtPSJ0cmFuc2xhdGUoMTQwLjk5NjA5Mzc1LCAyMTgpIiBpZD0iZmxvd2NoYXJ0LUszLTEyOCIgY2xhc3M9Im5vZGUgZGVmYXVsdCBkZWZhdWx0Ij48cmVjdCBoZWlnaHQ9IjM0IiB3aWR0aD0iMTIyLjUiIHk9Ii0xNyIgeD0iLTYxLjI1IiByeT0iMCIgcng9IjAiIHN0eWxlPSIiIGNsYXNzPSJiYXNpYyBsYWJlbC1jb250YWluZXIiPjwvcmVjdD48ZyB0cmFuc2Zvcm09InRyYW5zbGF0ZSgtNTMuNzUsIC05LjUpIiBzdHlsZT0iIiBjbGFzcz0ibGFiZWwiPjx0ZXh0IHN0eWxlPSIiPjx0c3BhbiBjbGFzcz0icm93IiB4PSIwIiBkeT0iMWVtIiB4bWw6c3BhY2U9InByZXNlcnZlIj4zLiBTZXNzaW9uIEtleXM8L3RzcGFuPjwvdGV4dD48L2c+PC9nPjxnIHRyYW5zZm9ybT0idHJhbnNsYXRlKDE0MC45OTYwOTM3NSwgMzAyKSIgaWQ9ImZsb3djaGFydC1LNC0xMjkiIGNsYXNzPSJub2RlIGRlZmF1bHQgZGVmYXVsdCI+PHJlY3QgaGVpZ2h0PSIzNCIgd2lkdGg9IjE0MS40OTIxODc1IiB5PSItMTciIHg9Ii03MC43NDYwOTM3NSIgcnk9IjAiIHJ4PSIwIiBzdHlsZT0iIiBjbGFzcz0iYmFzaWMgbGFiZWwtY29udGFpbmVyIj48L3JlY3Q+PGcgdHJhbnNmb3JtPSJ0cmFuc2xhdGUoLTYzLjI0NjA5Mzc1LCAtOS41KSIgc3R5bGU9IiIgY2xhc3M9ImxhYmVsIj48dGV4dCBzdHlsZT0iIj48dHNwYW4gY2xhc3M9InJvdyIgeD0iMCIgZHk9IjFlbSIgeG1sOnNwYWNlPSJwcmVzZXJ2ZSI+NC4gQmlvbWV0cmljIEtleXM8L3RzcGFuPjwvdGV4dD48L2c+PC9nPjwvZz48L2c+PGcgdHJhbnNmb3JtPSJ0cmFuc2xhdGUoNjAzLjczMjQyMTg3NSwgMjUpIiBjbGFzcz0icm9vdCI+PGcgY2xhc3M9ImNsdXN0ZXJzIj48ZyBpZD0iRGF0YUZsb3ciIGNsYXNzPSJjbHVzdGVyIGRlZmF1bHQiPjxyZWN0IGhlaWdodD0iMzM2IiB3aWR0aD0iMjk4LjM4MjgxMjUiIHk9IjgiIHg9IjgiIHJ5PSIwIiByeD0iMCIgc3R5bGU9IiI+PC9yZWN0PjxnIHRyYW5zZm9ybT0idHJhbnNsYXRlKDg5LjQ3NjU2MjUsIDEzKSIgY2xhc3M9ImNsdXN0ZXItbGFiZWwiPjx0ZXh0IHN0eWxlPSIiPjx0c3BhbiBjbGFzcz0icm93IiB4PSIwIiBkeT0iMWVtIiB4bWw6c3BhY2U9InByZXNlcnZlIj5EYXRhIEZsb3cgU2VjdXJpdHk8L3RzcGFuPjwvdGV4dD48L2c+PC9nPjwvZz48ZyBjbGFzcz0iZWRnZVBhdGhzIj48cGF0aCBtYXJrZXItZW5kPSJ1cmwoI2Zsb3djaGFydC1wb2ludEVuZCkiIHN0eWxlPSJmaWxsOm5vbmU7IiBjbGFzcz0iZWRnZS10aGlja25lc3Mtbm9ybWFsIGVkZ2UtcGF0dGVybi1zb2xpZCBmbG93Y2hhcnQtbGluayBMUy1FMSBMRS1FMiIgaWQ9IkwtRTEtRTItMCIgZD0iTTE1Ny4xOTE0MDYyNSw2N0wxNTcuMTkxNDA2MjUsOTJMMTU3LjE5MTQwNjI1LDExNyI+PC9wYXRoPjxwYXRoIG1hcmtlci1lbmQ9InVybCgjZmxvd2NoYXJ0LXBvaW50RW5kKSIgc3R5bGU9ImZpbGw6bm9uZTsiIGNsYXNzPSJlZGdlLXRoaWNrbmVzcy1ub3JtYWwgZWRnZS1wYXR0ZXJuLXNvbGlkIGZsb3djaGFydC1saW5rIExTLUUyIExFLUUzIiBpZD0iTC1FMi1FMy0wIiBkPSJNMTU3LjE5MTQwNjI1LDE1MUwxNTcuMTkxNDA2MjUsMTc2TDE1Ny4xOTE0MDYyNSwyMDEiPjwvcGF0aD48cGF0aCBtYXJrZXItZW5kPSJ1cmwoI2Zsb3djaGFydC1wb2ludEVuZCkiIHN0eWxlPSJmaWxsOm5vbmU7IiBjbGFzcz0iZWRnZS10aGlja25lc3Mtbm9ybWFsIGVkZ2UtcGF0dGVybi1zb2xpZCBmbG93Y2hhcnQtbGluayBMUy1FMyBMRS1FNCIgaWQ9IkwtRTMtRTQtMCIgZD0iTTE1Ny4xOTE0MDYyNSwyMzVMMTU3LjE5MTQwNjI1LDI2MEwxNTcuMTkxNDA2MjUsMjg1Ij48L3BhdGg+PC9nPjxnIGNsYXNzPSJlZGdlTGFiZWxzIj48ZyBjbGFzcz0iZWRnZUxhYmVsIj48ZyB0cmFuc2Zvcm09InRyYW5zbGF0ZSgwLCAwKSIgY2xhc3M9ImxhYmVsIj48cmVjdCBoZWlnaHQ9IjAiIHdpZHRoPSIwIiByeT0iMCIgcng9IjAiPjwvcmVjdD48dGV4dCBzdHlsZT0iIj48dHNwYW4gY2xhc3M9InJvdyIgeD0iMCIgZHk9IjFlbSIgeG1sOnNwYWNlPSJwcmVzZXJ2ZSI+PC90c3Bhbj48L3RleHQ+PC9nPjwvZz48ZyBjbGFzcz0iZWRnZUxhYmVsIj48ZyB0cmFuc2Zvcm09InRyYW5zbGF0ZSgwLCAwKSIgY2xhc3M9ImxhYmVsIj48cmVjdCBoZWlnaHQ9IjAiIHdpZHRoPSIwIiByeT0iMCIgcng9IjAiPjwvcmVjdD48dGV4dCBzdHlsZT0iIj48dHNwYW4gY2xhc3M9InJvdyIgeD0iMCIgZHk9IjFlbSIgeG1sOnNwYWNlPSJwcmVzZXJ2ZSI+PC90c3Bhbj48L3RleHQ+PC9nPjwvZz48ZyBjbGFzcz0iZWRnZUxhYmVsIj48ZyB0cmFuc2Zvcm09InRyYW5zbGF0ZSgwLCAwKSIgY2xhc3M9ImxhYmVsIj48cmVjdCBoZWlnaHQ9IjAiIHdpZHRoPSIwIiByeT0iMCIgcng9IjAiPjwvcmVjdD48dGV4dCBzdHlsZT0iIj48dHNwYW4gY2xhc3M9InJvdyIgeD0iMCIgZHk9IjFlbSIgeG1sOnNwYWNlPSJwcmVzZXJ2ZSI+PC90c3Bhbj48L3RleHQ+PC9nPjwvZz48L2c+PGcgY2xhc3M9Im5vZGVzIj48ZyB0cmFuc2Zvcm09InRyYW5zbGF0ZSgxNTcuMTkxNDA2MjUsIDUwKSIgaWQ9ImZsb3djaGFydC1FMS0xMTgiIGNsYXNzPSJub2RlIGRlZmF1bHQgZGVmYXVsdCI+PHJlY3QgaGVpZ2h0PSIzNCIgd2lkdGg9IjIyOC4zODI4MTI1IiB5PSItMTciIHg9Ii0xMTQuMTkxNDA2MjUiIHJ5PSIwIiByeD0iMCIgc3R5bGU9IiIgY2xhc3M9ImJhc2ljIGxhYmVsLWNvbnRhaW5lciI+PC9yZWN0PjxnIHRyYW5zZm9ybT0idHJhbnNsYXRlKC0xMDYuNjkxNDA2MjUsIC05LjUpIiBzdHlsZT0iIiBjbGFzcz0ibGFiZWwiPjx0ZXh0IHN0eWxlPSIiPjx0c3BhbiBjbGFzcz0icm93IiB4PSIwIiBkeT0iMWVtIiB4bWw6c3BhY2U9InByZXNlcnZlIj4xLiBEYXRhIEVuY3J5cHRpb24gKEFFUy1HQ00pPC90c3Bhbj48L3RleHQ+PC9nPjwvZz48ZyB0cmFuc2Zvcm09InRyYW5zbGF0ZSgxNTcuMTkxNDA2MjUsIDEzNCkiIGlkPSJmbG93Y2hhcnQtRTItMTE5IiBjbGFzcz0ibm9kZSBkZWZhdWx0IGRlZmF1bHQiPjxyZWN0IGhlaWdodD0iMzQiIHdpZHRoPSIxMzIuMjEwOTM3NSIgeT0iLTE3IiB4PSItNjYuMTA1NDY4NzUiIHJ5PSIwIiByeD0iMCIgc3R5bGU9IiIgY2xhc3M9ImJhc2ljIGxhYmVsLWNvbnRhaW5lciI+PC9yZWN0PjxnIHRyYW5zZm9ybT0idHJhbnNsYXRlKC01OC42MDU0Njg3NSwgLTkuNSkiIHN0eWxlPSIiIGNsYXNzPSJsYWJlbCI+PHRleHQgc3R5bGU9IiI+PHRzcGFuIGNsYXNzPSJyb3ciIHg9IjAiIGR5PSIxZW0iIHhtbDpzcGFjZT0icHJlc2VydmUiPjIuIFJTQSBTaWduYXR1cmU8L3RzcGFuPjwvdGV4dD48L2c+PC9nPjxnIHRyYW5zZm9ybT0idHJhbnNsYXRlKDE1Ny4xOTE0MDYyNSwgMjE4KSIgaWQ9ImZsb3djaGFydC1FMy0xMjAiIGNsYXNzPSJub2RlIGRlZmF1bHQgZGVmYXVsdCI+PHJlY3QgaGVpZ2h0PSIzNCIgd2lkdGg9IjE0MC40NTMxMjUiIHk9Ii0xNyIgeD0iLTcwLjIyNjU2MjUiIHJ5PSIwIiByeD0iMCIgc3R5bGU9IiIgY2xhc3M9ImJhc2ljIGxhYmVsLWNvbnRhaW5lciI+PC9yZWN0PjxnIHRyYW5zZm9ybT0idHJhbnNsYXRlKC02Mi43MjY1NjI1LCAtOS41KSIgc3R5bGU9IiIgY2xhc3M9ImxhYmVsIj48dGV4dCBzdHlsZT0iIj48dHNwYW4gY2xhc3M9InJvdyIgeD0iMCIgZHk9IjFlbSIgeG1sOnNwYWNlPSJwcmVzZXJ2ZSI+My4gVExTIEVuY3J5cHRpb248L3RzcGFuPjwvdGV4dD48L2c+PC9nPjxnIHRyYW5zZm9ybT0idHJhbnNsYXRlKDE1Ny4xOTE0MDYyNSwgMzAyKSIgaWQ9ImZsb3djaGFydC1FNC0xMjEiIGNsYXNzPSJub2RlIGRlZmF1bHQgZGVmYXVsdCI+PHJlY3QgaGVpZ2h0PSIzNCIgd2lkdGg9IjE5My43NDIxODc1IiB5PSItMTciIHg9Ii05Ni44NzEwOTM3NSIgcnk9IjAiIHJ4PSIwIiBzdHlsZT0iIiBjbGFzcz0iYmFzaWMgbGFiZWwtY29udGFpbmVyIj48L3JlY3Q+PGcgdHJhbnNmb3JtPSJ0cmFuc2xhdGUoLTg5LjM3MTA5Mzc1LCAtOS41KSIgc3R5bGU9IiIgY2xhc3M9ImxhYmVsIj48dGV4dCBzdHlsZT0iIj48dHNwYW4gY2xhc3M9InJvdyIgeD0iMCIgZHk9IjFlbSIgeG1sOnNwYWNlPSJwcmVzZXJ2ZSI+NC4gWmVyby1Lbm93bGVkZ2UgUHJvb2Y8L3RzcGFuPjwvdGV4dD48L2c+PC9nPjwvZz48L2c+PGcgdHJhbnNmb3JtPSJ0cmFuc2xhdGUoOTUyLjExNTIzNDM3NSwgNDgpIiBjbGFzcz0icm9vdCI+PGcgY2xhc3M9ImNsdXN0ZXJzIj48ZyBpZD0iT3JnIiBjbGFzcz0iY2x1c3RlciBkZWZhdWx0Ij48cmVjdCBoZWlnaHQ9IjI5MCIgd2lkdGg9IjI3MS45MTQwNjI1IiB5PSI4IiB4PSI4IiByeT0iMCIgcng9IjAiIHN0eWxlPSIiPjwvcmVjdD48ZyB0cmFuc2Zvcm09InRyYW5zbGF0ZSg1MC4zNTE1NjI1LCAxMykiIGNsYXNzPSJjbHVzdGVyLWxhYmVsIj48dGV4dCBzdHlsZT0iIj48dHNwYW4gY2xhc3M9InJvdyIgeD0iMCIgZHk9IjFlbSIgeG1sOnNwYWNlPSJwcmVzZXJ2ZSI+T3JnYW5pemF0aW9uIE1hbmFnZW1lbnQ8L3RzcGFuPjwvdGV4dD48L2c+PC9nPjwvZz48ZyBjbGFzcz0iZWRnZVBhdGhzIj48cGF0aCBtYXJrZXItZW5kPSJ1cmwoI2Zsb3djaGFydC1wb2ludEVuZCkiIHN0eWxlPSJmaWxsOm5vbmU7IiBjbGFzcz0iZWRnZS10aGlja25lc3Mtbm9ybWFsIGVkZ2UtcGF0dGVybi1zb2xpZCBmbG93Y2hhcnQtbGluayBMUy1SQkFDIExFLVRFQU0iIGlkPSJMLVJCQUMtVEVBTS0wIiBkPSJNMTQzLjk1NzAzMTI1LDY3TDE0My45NTcwMzEyNSwxMDEuNUwxNDMuOTU3MDMxMjUsMTM2Ij48L3BhdGg+PHBhdGggbWFya2VyLWVuZD0idXJsKCNmbG93Y2hhcnQtcG9pbnRFbmQpIiBzdHlsZT0iZmlsbDpub25lOyIgY2xhc3M9ImVkZ2UtdGhpY2tuZXNzLW5vcm1hbCBlZGdlLXBhdHRlcm4tc29saWQgZmxvd2NoYXJ0LWxpbmsgTFMtVEVBTSBMRS1WQVVMVCIgaWQ9IkwtVEVBTS1WQVVMVC0wIiBkPSJNMTQzLjk1NzAzMTI1LDE3MEwxNDMuOTU3MDMxMjUsMjA0LjVMMTQzLjk1NzAzMTI1LDIzOSI+PC9wYXRoPjwvZz48ZyBjbGFzcz0iZWRnZUxhYmVscyI+PGcgdHJhbnNmb3JtPSJ0cmFuc2xhdGUoMTQzLjk1NzAzMTI1LCAxMDEuNSkiIGNsYXNzPSJlZGdlTGFiZWwiPjxnIHRyYW5zZm9ybT0idHJhbnNsYXRlKC0yNi41MjM0Mzc1LCAtOS41KSIgY2xhc3M9ImxhYmVsIj48cmVjdCBoZWlnaHQ9IjE4LjU3MTYzODEwNzI5OTgwNSIgd2lkdGg9IjUzLjM0NzQ1MDI1NjM0NzY1NiIgcnk9IjAiIHJ4PSIwIj48L3JlY3Q+PHRleHQgc3R5bGU9IiI+PHRzcGFuIGNsYXNzPSJyb3ciIHg9IjAiIGR5PSIxZW0iIHhtbDpzcGFjZT0icHJlc2VydmUiPkNvbnRyb2w8L3RzcGFuPjwvdGV4dD48L2c+PC9nPjxnIHRyYW5zZm9ybT0idHJhbnNsYXRlKDE0My45NTcwMzEyNSwgMjA0LjUpIiBjbGFzcz0iZWRnZUxhYmVsIj48ZyB0cmFuc2Zvcm09InRyYW5zbGF0ZSgtMjQuMjQyMTg3NSwgLTkuNSkiIGNsYXNzPSJsYWJlbCI+PHJlY3QgaGVpZ2h0PSIxOC41NzE2MzgxMDcyOTk4MDUiIHdpZHRoPSI0OC40Mzg4NzMyOTEwMTU2MjUiIHJ5PSIwIiByeD0iMCI+PC9yZWN0Pjx0ZXh0IHN0eWxlPSIiPjx0c3BhbiBjbGFzcz0icm93IiB4PSIwIiBkeT0iMWVtIiB4bWw6c3BhY2U9InByZXNlcnZlIj5BY2Nlc3M8L3RzcGFuPjwvdGV4dD48L2c+PC9nPjwvZz48ZyBjbGFzcz0ibm9kZXMiPjxnIHRyYW5zZm9ybT0idHJhbnNsYXRlKDE0My45NTcwMzEyNSwgNTApIiBpZD0iZmxvd2NoYXJ0LVJCQUMtOTciIGNsYXNzPSJub2RlIGRlZmF1bHQgc2VjdXJpdHlDaGVjayI+PHJlY3QgaGVpZ2h0PSIzNCIgd2lkdGg9IjIwMS45MTQwNjI1IiB5PSItMTciIHg9Ii0xMDAuOTU3MDMxMjUiIHJ5PSIwIiByeD0iMCIgc3R5bGU9IiIgY2xhc3M9ImJhc2ljIGxhYmVsLWNvbnRhaW5lciI+PC9yZWN0PjxnIHRyYW5zZm9ybT0idHJhbnNsYXRlKC05My40NTcwMzEyNSwgLTkuNSkiIHN0eWxlPSIiIGNsYXNzPSJsYWJlbCI+PHRleHQgc3R5bGU9IiI+PHRzcGFuIGNsYXNzPSJyb3ciIHg9IjAiIGR5PSIxZW0iIHhtbDpzcGFjZT0icHJlc2VydmUiPlJvbGUtQmFzZWQgQWNjZXNzIENvbnRyb2w8L3RzcGFuPjwvdGV4dD48L2c+PC9nPjxnIHRyYW5zZm9ybT0idHJhbnNsYXRlKDE0My45NTcwMzEyNSwgMTUzKSIgaWQ9ImZsb3djaGFydC1URUFNLTk4IiBjbGFzcz0ibm9kZSBkZWZhdWx0IGRlZmF1bHQiPjxyZWN0IGhlaWdodD0iMzQiIHdpZHRoPSIxNDkuOTQ1MzEyNSIgeT0iLTE3IiB4PSItNzQuOTcyNjU2MjUiIHJ5PSIwIiByeD0iMCIgc3R5bGU9IiIgY2xhc3M9ImJhc2ljIGxhYmVsLWNvbnRhaW5lciI+PC9yZWN0PjxnIHRyYW5zZm9ybT0idHJhbnNsYXRlKC02Ny40NzI2NTYyNSwgLTkuNSkiIHN0eWxlPSIiIGNsYXNzPSJsYWJlbCI+PHRleHQgc3R5bGU9IiI+PHRzcGFuIGNsYXNzPSJyb3ciIHg9IjAiIGR5PSIxZW0iIHhtbDpzcGFjZT0icHJlc2VydmUiPlRlYW0gTWFuYWdlbWVudDwvdHNwYW4+PC90ZXh0PjwvZz48L2c+PGcgdHJhbnNmb3JtPSJ0cmFuc2xhdGUoMTQzLjk1NzAzMTI1LCAyNTYpIiBpZD0iZmxvd2NoYXJ0LVZBVUxULTk5IiBjbGFzcz0ibm9kZSBkZWZhdWx0IGRlZmF1bHQiPjxyZWN0IGhlaWdodD0iMzQiIHdpZHRoPSIxMjguMzI4MTI1IiB5PSItMTciIHg9Ii02NC4xNjQwNjI1IiByeT0iMCIgcng9IjAiIHN0eWxlPSIiIGNsYXNzPSJiYXNpYyBsYWJlbC1jb250YWluZXIiPjwvcmVjdD48ZyB0cmFuc2Zvcm09InRyYW5zbGF0ZSgtNTYuNjY0MDYyNSwgLTkuNSkiIHN0eWxlPSIiIGNsYXNzPSJsYWJlbCI+PHRleHQgc3R5bGU9IiI+PHRzcGFuIGNsYXNzPSJyb3ciIHg9IjAiIGR5PSIxZW0iIHhtbDpzcGFjZT0icHJlc2VydmUiPlBhc3N3b3JkIFZhdWx0czwvdHNwYW4+PC90ZXh0PjwvZz48L2c+PC9nPjwvZz48ZyB0cmFuc2Zvcm09InRyYW5zbGF0ZSgzNTAuMjM4MjgxMjUsIDUwNCkiIGlkPSJmbG93Y2hhcnQtQVBJLTg3IiBjbGFzcz0ibm9kZSBkZWZhdWx0IGRlZmF1bHQiPjxyZWN0IGhlaWdodD0iNTAiIHdpZHRoPSIxMTkuOTc2NTYyNSIgeT0iLTI1IiB4PSItNTkuOTg4MjgxMjUiIHJ5PSIwIiByeD0iMCIgc3R5bGU9ImZpbGw6I2ZmOTtzdHJva2U6I2NjOTtzdHJva2Utd2lkdGg6MnB4OyIgY2xhc3M9ImJhc2ljIGxhYmVsLWNvbnRhaW5lciI+PC9yZWN0PjxnIHRyYW5zZm9ybT0idHJhbnNsYXRlKC01Mi40ODgyODEyNSwgLTE3LjUpIiBzdHlsZT0iIiBjbGFzcz0ibGFiZWwiPjx0ZXh0IHN0eWxlPSIiPjx0c3BhbiBjbGFzcz0icm93IiB4PSIwIiBkeT0iMWVtIiB4bWw6c3BhY2U9InByZXNlcnZlIj5BUEkgTGF5ZXI8L3RzcGFuPjx0c3BhbiBjbGFzcz0icm93IiB4PSIwIiBkeT0iMWVtIiB4bWw6c3BhY2U9InByZXNlcnZlIj4oUmF0ZSBMaW1pdGVkKTwvdHNwYW4+PC90ZXh0PjwvZz48L2c+PGcgdHJhbnNmb3JtPSJ0cmFuc2xhdGUoMTE0LjA0Njg3NSwgNjIzKSIgaWQ9ImZsb3djaGFydC1BVVRILTg4IiBjbGFzcz0ibm9kZSBkZWZhdWx0IHNlY3VyaXR5Q2hlY2siPjxyZWN0IGhlaWdodD0iNTAiIHdpZHRoPSIxNDIuMDkzNzUiIHk9Ii0yNSIgeD0iLTcxLjA0Njg3NSIgcnk9IjAiIHJ4PSIwIiBzdHlsZT0iIiBjbGFzcz0iYmFzaWMgbGFiZWwtY29udGFpbmVyIj48L3JlY3Q+PGcgdHJhbnNmb3JtPSJ0cmFuc2xhdGUoLTYzLjU0Njg3NSwgLTE3LjUpIiBzdHlsZT0iIiBjbGFzcz0ibGFiZWwiPjx0ZXh0IHN0eWxlPSIiPjx0c3BhbiBjbGFzcz0icm93IiB4PSIwIiBkeT0iMWVtIiB4bWw6c3BhY2U9InByZXNlcnZlIj5BdXRoIFNlcnZpY2U8L3RzcGFuPjx0c3BhbiBjbGFzcz0icm93IiB4PSIwIiBkeT0iMWVtIiB4bWw6c3BhY2U9InByZXNlcnZlIj4oWmVybyBLbm93bGVkZ2UpPC90c3Bhbj48L3RleHQ+PC9nPjwvZz48ZyB0cmFuc2Zvcm09InRyYW5zbGF0ZSgzMDguMjY1NjI1LCA2MjMpIiBpZD0iZmxvd2NoYXJ0LVNUT1JFLTg5IiBjbGFzcz0ibm9kZSBkZWZhdWx0IGNyaXRpY2FsRGF0YSI+PHJlY3QgaGVpZ2h0PSIzNCIgd2lkdGg9IjE0Ni4zNDM3NSIgeT0iLTE3IiB4PSItNzMuMTcxODc1IiByeT0iMCIgcng9IjAiIHN0eWxlPSIiIGNsYXNzPSJiYXNpYyBsYWJlbC1jb250YWluZXIiPjwvcmVjdD48ZyB0cmFuc2Zvcm09InRyYW5zbGF0ZSgtNjUuNjcxODc1LCAtOS41KSIgc3R5bGU9IiIgY2xhc3M9ImxhYmVsIj48dGV4dCBzdHlsZT0iIj48dHNwYW4gY2xhc3M9InJvdyIgeD0iMCIgZHk9IjFlbSIgeG1sOnNwYWNlPSJwcmVzZXJ2ZSI+RW5jcnlwdGVkIFN0b3JhZ2U8L3RzcGFuPjwvdGV4dD48L2c+PC9nPjxnIHRyYW5zZm9ybT0idHJhbnNsYXRlKDQ4NS4wODU5Mzc1LCA2MjMpIiBpZD0iZmxvd2NoYXJ0LUFVRElULTkwIiBjbGFzcz0ibm9kZSBkZWZhdWx0IGRlZmF1bHQiPjxyZWN0IGhlaWdodD0iMzQiIHdpZHRoPSIxMDcuMjk2ODc1IiB5PSItMTciIHg9Ii01My42NDg0Mzc1IiByeT0iMCIgcng9IjAiIHN0eWxlPSIiIGNsYXNzPSJiYXNpYyBsYWJlbC1jb250YWluZXIiPjwvcmVjdD48ZyB0cmFuc2Zvcm09InRyYW5zbGF0ZSgtNDYuMTQ4NDM3NSwgLTkuNSkiIHN0eWxlPSIiIGNsYXNzPSJsYWJlbCI+PHRleHQgc3R5bGU9IiI+PHRzcGFuIGNsYXNzPSJyb3ciIHg9IjAiIGR5PSIxZW0iIHhtbDpzcGFjZT0icHJlc2VydmUiPkF1ZGl0IExvZ2dlcjwvdHNwYW4+PC90ZXh0PjwvZz48L2c+PGcgdHJhbnNmb3JtPSJ0cmFuc2xhdGUoMTY1MS43NjM2NzE4NzUsIDIwMSkiIGlkPSJmbG93Y2hhcnQtVUktNzMiIGNsYXNzPSJub2RlIGRlZmF1bHQgZGVmYXVsdCI+PHBvbHlnb24gc3R5bGU9IiIgdHJhbnNmb3JtPSJ0cmFuc2xhdGUoLTU4LjY3MTg3NSwxNykiIGNsYXNzPSJsYWJlbC1jb250YWluZXIiIHBvaW50cz0iLTExLjMzMzMzMzMzMzMzMzMzNCwwIDExMS42NzcwODMzMzMzMzMzMywwIDEyOC42NzcwODMzMzMzMzMzNCwtMzQgNS42NjY2NjY2NjY2NjY2NjcsLTM0Ij48L3BvbHlnb24+PGcgdHJhbnNmb3JtPSJ0cmFuc2xhdGUoLTUxLjE3MTg3NSwgLTkuNSkiIHN0eWxlPSIiIGNsYXNzPSJsYWJlbCI+PHRleHQgc3R5bGU9IiI+PHRzcGFuIGNsYXNzPSJyb3ciIHg9IjAiIGR5PSIxZW0iIHhtbDpzcGFjZT0icHJlc2VydmUiPlVzZXIgSW50ZXJmYWNlPC90c3Bhbj48L3RleHQ+PC9nPjwvZz48ZyB0cmFuc2Zvcm09InRyYW5zbGF0ZSgxNjI3LjQxMDE1NjI1LCA1MDQpIiBpZD0iZmxvd2NoYXJ0LUtHLTc0IiBjbGFzcz0ibm9kZSBkZWZhdWx0IHNlY3VyaXR5Q2hlY2siPjxyZWN0IGhlaWdodD0iNTAiIHdpZHRoPSIxOTMuMzIwMzEyNSIgeT0iLTI1IiB4PSItOTYuNjYwMTU2MjUiIHJ5PSIwIiByeD0iMCIgc3R5bGU9IiIgY2xhc3M9ImJhc2ljIGxhYmVsLWNvbnRhaW5lciI+PC9yZWN0PjxnIHRyYW5zZm9ybT0idHJhbnNsYXRlKC04OS4xNjAxNTYyNSwgLTE3LjUpIiBzdHlsZT0iIiBjbGFzcz0ibGFiZWwiPjx0ZXh0IHN0eWxlPSIiPjx0c3BhbiBjbGFzcz0icm93IiB4PSIwIiBkeT0iMWVtIiB4bWw6c3BhY2U9InByZXNlcnZlIj5LZXkgR2VuZXJhdGlvbjwvdHNwYW4+PHRzcGFuIGNsYXNzPSJyb3ciIHg9IjAiIGR5PSIxZW0iIHhtbDpzcGFjZT0icHJlc2VydmUiPihSU0EgNDA5Ni1iaXQgJmFtcDsgQUVTLTI1Nik8L3RzcGFuPjwvdGV4dD48L2c+PC9nPjxnIHRyYW5zZm9ybT0idHJhbnNsYXRlKDEzOTYuNjE5MTQwNjI1LCA2MjMpIiBpZD0iZmxvd2NoYXJ0LUxFLTc1IiBjbGFzcz0ibm9kZSBkZWZhdWx0IGRlZmF1bHQiPjxyZWN0IGhlaWdodD0iMzQiIHdpZHRoPSIxOTAuMTc5Njg3NSIgeT0iLTE3IiB4PSItOTUuMDg5ODQzNzUiIHJ5PSIwIiByeD0iMCIgc3R5bGU9IiIgY2xhc3M9ImJhc2ljIGxhYmVsLWNvbnRhaW5lciI+PC9yZWN0PjxnIHRyYW5zZm9ybT0idHJhbnNsYXRlKC04Ny41ODk4NDM3NSwgLTkuNSkiIHN0eWxlPSIiIGNsYXNzPSJsYWJlbCI+PHRleHQgc3R5bGU9IiI+PHRzcGFuIGNsYXNzPSJyb3ciIHg9IjAiIGR5PSIxZW0iIHhtbDpzcGFjZT0icHJlc2VydmUiPkxvY2FsIEVuY3J5cHRpb24gTW9kdWxlPC90c3Bhbj48L3RleHQ+PC9nPjwvZz48ZyB0cmFuc2Zvcm09InRyYW5zbGF0ZSgxNjM3LjQxMjEwOTM3NSwgNjIzKSIgaWQ9ImZsb3djaGFydC1MRC03NiIgY2xhc3M9Im5vZGUgZGVmYXVsdCBkZWZhdWx0Ij48cmVjdCBoZWlnaHQ9IjM0IiB3aWR0aD0iMTkxLjQwNjI1IiB5PSItMTciIHg9Ii05NS43MDMxMjUiIHJ5PSIwIiByeD0iMCIgc3R5bGU9IiIgY2xhc3M9ImJhc2ljIGxhYmVsLWNvbnRhaW5lciI+PC9yZWN0PjxnIHRyYW5zZm9ybT0idHJhbnNsYXRlKC04OC4yMDMxMjUsIC05LjUpIiBzdHlsZT0iIiBjbGFzcz0ibGFiZWwiPjx0ZXh0IHN0eWxlPSIiPjx0c3BhbiBjbGFzcz0icm93IiB4PSIwIiBkeT0iMWVtIiB4bWw6c3BhY2U9InByZXNlcnZlIj5Mb2NhbCBEZWNyeXB0aW9uIE1vZHVsZTwvdHNwYW4+PC90ZXh0PjwvZz48L2c+PGcgdHJhbnNmb3JtPSJ0cmFuc2xhdGUoMTg2Mi44NjcxODc1LCA1MDQpIiBpZD0iZmxvd2NoYXJ0LUJJTy03NyIgY2xhc3M9Im5vZGUgZGVmYXVsdCBkZWZhdWx0Ij48cmVjdCBoZWlnaHQ9IjM0IiB3aWR0aD0iMTc3LjU5Mzc1IiB5PSItMTciIHg9Ii04OC43OTY4NzUiIHJ5PSIwIiByeD0iMCIgc3R5bGU9ImZpbGw6I2ZmOTtzdHJva2U6I2NjOTtzdHJva2Utd2lkdGg6MnB4OyIgY2xhc3M9ImJhc2ljIGxhYmVsLWNvbnRhaW5lciI+PC9yZWN0PjxnIHRyYW5zZm9ybT0idHJhbnNsYXRlKC04MS4yOTY4NzUsIC05LjUpIiBzdHlsZT0iIiBjbGFzcz0ibGFiZWwiPjx0ZXh0IHN0eWxlPSIiPjx0c3BhbiBjbGFzcz0icm93IiB4PSIwIiBkeT0iMWVtIiB4bWw6c3BhY2U9InByZXNlcnZlIj5CaW9tZXRyaWMgQXV0aCBNb2R1bGU8L3RzcGFuPjwvdGV4dD48L2c+PC9nPjxnIHRyYW5zZm9ybT0idHJhbnNsYXRlKDE4NjIuODY3MTg3NSwgNjIzKSIgaWQ9ImZsb3djaGFydC1TS1MtNzgiIGNsYXNzPSJub2RlIGRlZmF1bHQgY3JpdGljYWxEYXRhIj48cmVjdCBoZWlnaHQ9IjUwIiB3aWR0aD0iMTU3LjcwMzEyNSIgeT0iLTI1IiB4PSItNzguODUxNTYyNSIgcnk9IjAiIHJ4PSIwIiBzdHlsZT0iZmlsbDojZjk5O3N0cm9rZTojZjY2O3N0cm9rZS13aWR0aDo0cHg7IiBjbGFzcz0iYmFzaWMgbGFiZWwtY29udGFpbmVyIj48L3JlY3Q+PGcgdHJhbnNmb3JtPSJ0cmFuc2xhdGUoLTcxLjM1MTU2MjUsIC0xNy41KSIgc3R5bGU9IiIgY2xhc3M9ImxhYmVsIj48dGV4dCBzdHlsZT0iIj48dHNwYW4gY2xhc3M9InJvdyIgeD0iMCIgZHk9IjFlbSIgeG1sOnNwYWNlPSJwcmVzZXJ2ZSI+U2VjdXJlIEtleSBTdG9yYWdlPC90c3Bhbj48dHNwYW4gY2xhc3M9InJvdyIgeD0iMCIgZHk9IjFlbSIgeG1sOnNwYWNlPSJwcmVzZXJ2ZSI+KFByb3RlY3RlZCBNZW1vcnkpPC90c3Bhbj48L3RleHQ+PC9nPjwvZz48ZyB0cmFuc2Zvcm09InRyYW5zbGF0ZSg5NTIuNDQ3MjY1NjI1LCA1MDQpIiBpZD0iZmxvd2NoYXJ0LW5vdGUxLTEwNiIgY2xhc3M9Im5vZGUgZGVmYXVsdCBkZWZhdWx0Ij48cmVjdCBoZWlnaHQ9IjUwIiB3aWR0aD0iMTczLjk3NjU2MjUiIHk9Ii0yNSIgeD0iLTg2Ljk4ODI4MTI1IiByeT0iMCIgcng9IjAiIHN0eWxlPSIiIGNsYXNzPSJiYXNpYyBsYWJlbC1jb250YWluZXIiPjwvcmVjdD48ZyB0cmFuc2Zvcm09InRyYW5zbGF0ZSgtNzkuNDg4MjgxMjUsIC0xNy41KSIgc3R5bGU9IiIgY2xhc3M9ImxhYmVsIj48dGV4dCBzdHlsZT0iIj48dHNwYW4gY2xhc3M9InJvdyIgeD0iMCIgZHk9IjFlbSIgeG1sOnNwYWNlPSJwcmVzZXJ2ZSI+8J+UkiBBbGwgZGF0YSBlbmNyeXB0ZWQ8L3RzcGFuPjx0c3BhbiBjbGFzcz0icm93IiB4PSIwIiBkeT0iMWVtIiB4bWw6c3BhY2U9InByZXNlcnZlIj5iZWZvcmUgdHJhbnNtaXNzaW9uPC90c3Bhbj48L3RleHQ+PC9nPjwvZz48ZyB0cmFuc2Zvcm09InRyYW5zbGF0ZSgyMTA1Ljg1MTU2MjUsIDUwNCkiIGlkPSJmbG93Y2hhcnQtbm90ZTItMTA3IiBjbGFzcz0ibm9kZSBkZWZhdWx0IGRlZmF1bHQiPjxyZWN0IGhlaWdodD0iNTAiIHdpZHRoPSIxNjguMzc1IiB5PSItMjUiIHg9Ii04NC4xODc1IiByeT0iMCIgcng9IjAiIHN0eWxlPSIiIGNsYXNzPSJiYXNpYyBsYWJlbC1jb250YWluZXIiPjwvcmVjdD48ZyB0cmFuc2Zvcm09InRyYW5zbGF0ZSgtNzYuNjg3NSwgLTE3LjUpIiBzdHlsZT0iIiBjbGFzcz0ibGFiZWwiPjx0ZXh0IHN0eWxlPSIiPjx0c3BhbiBjbGFzcz0icm93IiB4PSIwIiBkeT0iMWVtIiB4bWw6c3BhY2U9InByZXNlcnZlIj7imqDvuI8gUG90ZW50aWFsIE1lbW9yeTwvdHNwYW4+PHRzcGFuIGNsYXNzPSJyb3ciIHg9IjAiIGR5PSIxZW0iIHhtbDpzcGFjZT0icHJlc2VydmUiPkR1bXAgVnVsbmVyYWJpbGl0eTwvdHNwYW4+PC90ZXh0PjwvZz48L2c+PGcgdHJhbnNmb3JtPSJ0cmFuc2xhdGUoMjEwOS4xOTE0MDYyNSwgMjAxKSIgaWQ9ImZsb3djaGFydC1ub3RlMy0xMDgiIGNsYXNzPSJub2RlIGRlZmF1bHQgZGVmYXVsdCI+PHJlY3QgaGVpZ2h0PSI1MCIgd2lkdGg9IjE3NS4wNTQ2ODc1IiB5PSItMjUiIHg9Ii04Ny41MjczNDM3NSIgcnk9IjAiIHJ4PSIwIiBzdHlsZT0iIiBjbGFzcz0iYmFzaWMgbGFiZWwtY29udGFpbmVyIj48L3JlY3Q+PGcgdHJhbnNmb3JtPSJ0cmFuc2xhdGUoLTgwLjAyNzM0Mzc1LCAtMTcuNSkiIHN0eWxlPSIiIGNsYXNzPSJsYWJlbCI+PHRleHQgc3R5bGU9IiI+PHRzcGFuIGNsYXNzPSJyb3ciIHg9IjAiIGR5PSIxZW0iIHhtbDpzcGFjZT0icHJlc2VydmUiPvCflJEgS2V5IHJvdGF0aW9uIGV2ZXJ5PC90c3Bhbj48dHNwYW4gY2xhc3M9InJvdyIgeD0iMCIgZHk9IjFlbSIgeG1sOnNwYWNlPSJwcmVzZXJ2ZSI+MzAgZGF5czwvdHNwYW4+PC90ZXh0PjwvZz48L2c+PGcgdHJhbnNmb3JtPSJ0cmFuc2xhdGUoNzIxLjAzNzEwOTM3NSwgNTA0KSIgaWQ9ImZsb3djaGFydC1ub3RlNC0xMDkiIGNsYXNzPSJub2RlIGRlZmF1bHQgZGVmYXVsdCI+PHJlY3QgaGVpZ2h0PSI1MCIgd2lkdGg9IjE4OC44NDM3NSIgeT0iLTI1IiB4PSItOTQuNDIxODc1IiByeT0iMCIgcng9IjAiIHN0eWxlPSIiIGNsYXNzPSJiYXNpYyBsYWJlbC1jb250YWluZXIiPjwvcmVjdD48ZyB0cmFuc2Zvcm09InRyYW5zbGF0ZSgtODYuOTIxODc1LCAtMTcuNSkiIHN0eWxlPSIiIGNsYXNzPSJsYWJlbCI+PHRleHQgc3R5bGU9IiI+PHRzcGFuIGNsYXNzPSJyb3ciIHg9IjAiIGR5PSIxZW0iIHhtbDpzcGFjZT0icHJlc2VydmUiPvCfk50gQXVkaXQgbG9ncyBlbmNyeXB0ZWQ8L3RzcGFuPjx0c3BhbiBjbGFzcz0icm93IiB4PSIwIiBkeT0iMWVtIiB4bWw6c3BhY2U9InByZXNlcnZlIj5idXQgc2VhcmNoYWJsZTwvdHNwYW4+PC90ZXh0PjwvZz48L2c+PGcgdHJhbnNmb3JtPSJ0cmFuc2xhdGUoMTE2MC40ODI0MjE4NzUsIDUwNCkiIGlkPSJmbG93Y2hhcnQtQ1AxLTEzNyIgY2xhc3M9Im5vZGUgZGVmYXVsdCBjaGVja3BvaW50Ij48cG9seWdvbiBzdHlsZT0iIiB0cmFuc2Zvcm09InRyYW5zbGF0ZSgtNzEuMDQ2ODc1LDE3KSIgY2xhc3M9ImxhYmVsLWNvbnRhaW5lciIgcG9pbnRzPSI4LjUsMCAxMzMuNTkzNzUsMCAxNDIuMDkzNzUsLTE3IDEzMy41OTM3NSwtMzQgOC41LC0zNCAwLC0xNyI+PC9wb2x5Z29uPjxnIHRyYW5zZm9ybT0idHJhbnNsYXRlKC01NS4wNDY4NzUsIC05LjUpIiBzdHlsZT0iIiBjbGFzcz0ibGFiZWwiPjx0ZXh0IHN0eWxlPSIiPjx0c3BhbiBjbGFzcz0icm93IiB4PSIwIiBkeT0iMWVtIiB4bWw6c3BhY2U9InByZXNlcnZlIj5JbnRlZ3JpdHkgQ2hlY2s8L3RzcGFuPjwvdGV4dD48L2c+PC9nPjxnIHRyYW5zZm9ybT0idHJhbnNsYXRlKDkyOS4wNzIyNjU2MjUsIDYyMykiIGlkPSJmbG93Y2hhcnQtQ1AyLTEzOCIgY2xhc3M9Im5vZGUgZGVmYXVsdCBjaGVja3BvaW50Ij48cG9seWdvbiBzdHlsZT0iIiB0cmFuc2Zvcm09InRyYW5zbGF0ZSgtNjEuMDkzNzUsMTcpIiBjbGFzcz0ibGFiZWwtY29udGFpbmVyIiBwb2ludHM9IjguNSwwIDExMy42ODc1LDAgMTIyLjE4NzUsLTE3IDExMy42ODc1LC0zNCA4LjUsLTM0IDAsLTE3Ij48L3BvbHlnb24+PGcgdHJhbnNmb3JtPSJ0cmFuc2xhdGUoLTQ1LjA5Mzc1LCAtOS41KSIgc3R5bGU9IiIgY2xhc3M9ImxhYmVsIj48dGV4dCBzdHlsZT0iIj48dHNwYW4gY2xhc3M9InJvdyIgeD0iMCIgZHk9IjFlbSIgeG1sOnNwYWNlPSJwcmVzZXJ2ZSI+UmF0ZSBMaW1pdGVyPC90c3Bhbj48L3RleHQ+PC9nPjwvZz48ZyB0cmFuc2Zvcm09InRyYW5zbGF0ZSgxMTQuMDQ2ODc1LCA3NDApIiBpZD0iZmxvd2NoYXJ0LUNQMy0xMzkiIGNsYXNzPSJub2RlIGRlZmF1bHQgY2hlY2twb2ludCI+PHBvbHlnb24gc3R5bGU9IiIgdHJhbnNmb3JtPSJ0cmFuc2xhdGUoLTY4LjA4MjAzMTI1LDE3KSIgY2xhc3M9ImxhYmVsLWNvbnRhaW5lciIgcG9pbnRzPSI4LjUsMCAxMjcuNjY0MDYyNSwwIDEzNi4xNjQwNjI1LC0xNyAxMjcuNjY0MDYyNSwtMzQgOC41LC0zNCAwLC0xNyI+PC9wb2x5Z29uPjxnIHRyYW5zZm9ybT0idHJhbnNsYXRlKC01Mi4wODIwMzEyNSwgLTkuNSkiIHN0eWxlPSIiIGNsYXNzPSJsYWJlbCI+PHRleHQgc3R5bGU9IiI+PHRzcGFuIGNsYXNzPSJyb3ciIHg9IjAiIGR5PSIxZW0iIHhtbDpzcGFjZT0icHJlc2VydmUiPkF1dGggVmFsaWRhdG9yPC90c3Bhbj48L3RleHQ+PC9nPjwvZz48L2c+PC9nPjwvZz48L3N2Zz4=;" parent="1" vertex="1">
                        <mxGeometry x="-1149" y="110" width="1130" height="655" as="geometry"/>
                    </mxCell>
                </UserObject>
            </root>
        </mxGraphModel>
    </diagram>
</mxfile>